%
M48
M72
T01C0.01400
T02C0.01575
T03C0.02000
T04C0.02362
T05C0.03150
T06C0.03200
T07C0.03937
T08C0.04000
T09C0.04528
T10C0.07874
T11C0.08661
%
T01
X141400Y216287
X125150Y257537
X120150Y257537
X115150Y257537
X110150Y257537
X103900Y257537
X97650Y245037
X90150Y247537
X77650Y252537
X76400Y260037
X65150Y260037
X51400Y271287
X40150Y287537
X47650Y291287
X50150Y301287
X56400Y310037
X61400Y310037
X66400Y310037
X71400Y310037
X77650Y307537
X88900Y323787
X71400Y366287
X36400Y382537
X17650Y365037
X50150Y316287
X23900Y263787
X45150Y223787
X67650Y228787
X132650Y262537
X160150Y262537
X153900Y289614
X163900Y293787
X167650Y299713
X173900Y302862
X201400Y312311
X210150Y315662
X201400Y291287
X215150Y279412
X226400Y280037
X236400Y280037
X317650Y213787
X323900Y238787
X346400Y128787
X145150Y291287
X125150Y291287
T02
X308841Y313059
X316715Y313059
X324589Y313059
X332463Y313059
X340337Y313059
X348211Y313059
X356085Y313059
X363959Y313059
X363959Y259516
X356085Y259516
X348211Y259516
X340337Y259516
X332463Y259516
X324589Y259516
X316715Y259516
X308841Y259516
T03
X10150Y311287
X10150Y306287
X10150Y301287
X10150Y296287
X10150Y291287
T04
X262935Y331406
X262935Y250894
T05
X73743Y377449
X54057Y377449
T06
X36400Y208787
X36400Y218787
X58900Y218787
X58900Y208787
T07
X378900Y276287
X378900Y286287
X378900Y296287
X355775Y384412
T08
X7500Y30987
X25300Y30987
X42500Y30987
X60300Y30987
X72500Y30987
X90300Y30987
X102500Y30987
X120300Y30987
X132500Y30987
X150300Y30987
X162500Y30987
X180300Y30987
X192500Y30987
X210300Y30987
X222500Y30987
X240300Y30987
X257500Y30987
X275300Y30987
X275300Y56587
X267500Y68487
X257500Y56587
X255300Y68487
X240300Y56587
X237500Y68487
X225300Y68487
X222500Y56587
X210300Y56587
X207500Y68487
X195300Y68487
X192500Y56587
X180300Y56587
X177500Y68487
X165300Y68487
X162500Y56587
X150300Y56587
X147500Y68487
X135300Y68487
X132500Y56587
X120300Y56587
X117500Y68487
X105300Y68487
X102500Y56587
X90300Y56587
X87500Y68487
X75300Y68487
X72500Y56587
X60300Y56587
X57500Y68487
X45300Y68487
X42500Y56587
X27500Y68487
X25300Y56587
X7500Y56587
X27500Y94087
X30300Y105987
X42500Y105987
X45300Y94087
X57500Y94087
X60300Y105987
X72500Y105987
X75300Y94087
X87500Y94087
X90300Y105987
X102500Y105987
X105300Y94087
X117500Y94087
X120300Y105987
X132500Y105987
X135300Y94087
X147500Y94087
X150300Y105987
X162500Y105987
X165300Y94087
X177500Y94087
X180300Y105987
X192500Y105987
X195300Y94087
X207500Y94087
X210300Y105987
X222500Y105987
X225300Y94087
X237500Y94087
X240300Y105987
X252500Y105987
X255300Y94087
X267500Y94087
X270300Y105987
X282500Y105987
X285300Y94087
X300300Y105987
X302500Y94087
X320300Y94087
X337500Y94087
X355300Y94087
X355300Y68487
X355300Y56587
X367500Y56587
X385300Y56587
X385300Y30987
X367500Y30987
X355300Y30987
X337500Y30987
X325300Y30987
X307500Y30987
X307500Y56587
X302500Y68487
X320300Y68487
X325300Y56587
X337500Y56587
X337500Y68487
X285300Y68487
X282500Y131587
X270300Y131587
X267500Y143487
X255300Y143487
X252500Y131587
X240300Y131587
X237500Y143487
X225300Y143487
X222500Y131587
X210300Y131587
X207500Y143487
X195300Y143487
X192500Y131587
X180300Y131587
X177500Y143487
X165300Y143487
X162500Y131587
X150300Y131587
X147500Y143487
X135300Y143487
X132500Y131587
X120300Y131587
X117500Y143487
X105300Y143487
X102500Y131587
X90300Y131587
X87500Y143487
X75300Y143487
X72500Y131587
X60300Y131587
X57500Y143487
X45300Y143487
X42500Y131587
X30300Y131587
X27500Y143487
X12500Y131587
X12500Y105987
X27500Y169087
X45300Y169087
X57500Y169087
X75300Y169087
X87500Y169087
X105300Y169087
X117500Y169087
X135300Y169087
X147500Y169087
X165300Y169087
X177500Y169087
X195300Y169087
X207500Y169087
X225300Y169087
X237500Y169087
X255300Y169087
X267500Y169087
X285300Y169087
X297500Y169087
X315300Y169087
X315300Y143487
X300300Y131587
X297500Y143487
X285300Y143487
X276400Y193787
X266400Y193787
X256400Y193787
X246400Y193787
X236400Y193787
X226400Y193787
X216400Y193787
X206400Y193787
X196400Y193787
X186400Y193787
X176400Y193787
X166400Y193787
X156400Y193787
X146400Y193787
X136400Y193787
X136400Y206287
X126400Y206287
X146400Y206287
X156400Y206287
X166400Y206287
X176400Y206287
X186400Y206287
X196400Y206287
X206400Y206287
X216400Y206287
X226400Y206287
X236400Y206287
X246400Y206287
X256400Y206287
X266400Y206287
X276400Y206287
X276400Y386287
X266400Y386287
X256400Y386287
X246400Y386287
X236400Y386287
X226400Y386287
X216400Y386287
X206400Y386287
X196400Y386287
X186400Y386287
X176400Y386287
X166400Y386287
X156400Y386287
X146400Y386287
X136400Y386287
X126400Y386287
X116400Y386287
X106400Y386287
X21400Y332537
X21400Y342537
X11400Y342537
X11400Y332537
X11400Y322537
X21400Y322537
X7650Y353787
X7650Y363787
X21400Y247537
X21400Y237537
X367500Y167837
X385300Y167837
X385300Y142237
X367500Y142237
T09
X78063Y388079
X49737Y388079
T10
X86400Y227537
X86400Y337537
X49471Y337537
X296400Y337537
X333329Y337537
X381400Y350037
X381400Y227537
T11
X376400Y13787
X376400Y183787
X376400Y213787
X376400Y383787
X16400Y383787
X16400Y213787
X16400Y183787
X16400Y13787
M30
