G75*
%MOIN*%
%OFA0B0*%
%FSLAX25Y25*%
%IPPOS*%
%LPD*%
%AMOC8*
5,1,8,0,0,1.08239X$1,22.5*
%
%ADD10C,0.00000*%
%ADD11C,0.00300*%
%ADD12C,0.00600*%
%ADD13C,0.00591*%
%ADD14C,0.00500*%
%ADD15R,0.00750X0.03500*%
%ADD16C,0.00800*%
%ADD17C,0.02000*%
D10*
X0006400Y0003787D02*
X0386400Y0003787D01*
X0386540Y0003789D01*
X0386680Y0003795D01*
X0386820Y0003805D01*
X0386960Y0003818D01*
X0387099Y0003836D01*
X0387238Y0003858D01*
X0387375Y0003883D01*
X0387513Y0003912D01*
X0387649Y0003945D01*
X0387784Y0003982D01*
X0387918Y0004023D01*
X0388051Y0004068D01*
X0388183Y0004116D01*
X0388313Y0004168D01*
X0388442Y0004223D01*
X0388569Y0004282D01*
X0388695Y0004345D01*
X0388819Y0004411D01*
X0388940Y0004480D01*
X0389060Y0004553D01*
X0389178Y0004630D01*
X0389293Y0004709D01*
X0389407Y0004792D01*
X0389517Y0004878D01*
X0389626Y0004967D01*
X0389732Y0005059D01*
X0389835Y0005154D01*
X0389936Y0005251D01*
X0390033Y0005352D01*
X0390128Y0005455D01*
X0390220Y0005561D01*
X0390309Y0005670D01*
X0390395Y0005780D01*
X0390478Y0005894D01*
X0390557Y0006009D01*
X0390634Y0006127D01*
X0390707Y0006247D01*
X0390776Y0006368D01*
X0390842Y0006492D01*
X0390905Y0006618D01*
X0390964Y0006745D01*
X0391019Y0006874D01*
X0391071Y0007004D01*
X0391119Y0007136D01*
X0391164Y0007269D01*
X0391205Y0007403D01*
X0391242Y0007538D01*
X0391275Y0007674D01*
X0391304Y0007812D01*
X0391329Y0007949D01*
X0391351Y0008088D01*
X0391369Y0008227D01*
X0391382Y0008367D01*
X0391392Y0008507D01*
X0391398Y0008647D01*
X0391400Y0008787D01*
X0391400Y0188787D01*
X0391398Y0188927D01*
X0391392Y0189067D01*
X0391382Y0189207D01*
X0391369Y0189347D01*
X0391351Y0189486D01*
X0391329Y0189625D01*
X0391304Y0189762D01*
X0391275Y0189900D01*
X0391242Y0190036D01*
X0391205Y0190171D01*
X0391164Y0190305D01*
X0391119Y0190438D01*
X0391071Y0190570D01*
X0391019Y0190700D01*
X0390964Y0190829D01*
X0390905Y0190956D01*
X0390842Y0191082D01*
X0390776Y0191206D01*
X0390707Y0191327D01*
X0390634Y0191447D01*
X0390557Y0191565D01*
X0390478Y0191680D01*
X0390395Y0191794D01*
X0390309Y0191904D01*
X0390220Y0192013D01*
X0390128Y0192119D01*
X0390033Y0192222D01*
X0389936Y0192323D01*
X0389835Y0192420D01*
X0389732Y0192515D01*
X0389626Y0192607D01*
X0389517Y0192696D01*
X0389407Y0192782D01*
X0389293Y0192865D01*
X0389178Y0192944D01*
X0389060Y0193021D01*
X0388940Y0193094D01*
X0388819Y0193163D01*
X0388695Y0193229D01*
X0388569Y0193292D01*
X0388442Y0193351D01*
X0388313Y0193406D01*
X0388183Y0193458D01*
X0388051Y0193506D01*
X0387918Y0193551D01*
X0387784Y0193592D01*
X0387649Y0193629D01*
X0387513Y0193662D01*
X0387375Y0193691D01*
X0387238Y0193716D01*
X0387099Y0193738D01*
X0386960Y0193756D01*
X0386820Y0193769D01*
X0386680Y0193779D01*
X0386540Y0193785D01*
X0386400Y0193787D01*
X0291400Y0193787D01*
X0291260Y0193789D01*
X0291120Y0193795D01*
X0290980Y0193805D01*
X0290840Y0193818D01*
X0290701Y0193836D01*
X0290562Y0193858D01*
X0290425Y0193883D01*
X0290287Y0193912D01*
X0290151Y0193945D01*
X0290016Y0193982D01*
X0289882Y0194023D01*
X0289749Y0194068D01*
X0289617Y0194116D01*
X0289487Y0194168D01*
X0289358Y0194223D01*
X0289231Y0194282D01*
X0289105Y0194345D01*
X0288981Y0194411D01*
X0288860Y0194480D01*
X0288740Y0194553D01*
X0288622Y0194630D01*
X0288507Y0194709D01*
X0288393Y0194792D01*
X0288283Y0194878D01*
X0288174Y0194967D01*
X0288068Y0195059D01*
X0287965Y0195154D01*
X0287864Y0195251D01*
X0287767Y0195352D01*
X0287672Y0195455D01*
X0287580Y0195561D01*
X0287491Y0195670D01*
X0287405Y0195780D01*
X0287322Y0195894D01*
X0287243Y0196009D01*
X0287166Y0196127D01*
X0287093Y0196247D01*
X0287024Y0196368D01*
X0286958Y0196492D01*
X0286895Y0196618D01*
X0286836Y0196745D01*
X0286781Y0196874D01*
X0286729Y0197004D01*
X0286681Y0197136D01*
X0286636Y0197269D01*
X0286595Y0197403D01*
X0286558Y0197538D01*
X0286525Y0197674D01*
X0286496Y0197812D01*
X0286471Y0197949D01*
X0286449Y0198088D01*
X0286431Y0198227D01*
X0286418Y0198367D01*
X0286408Y0198507D01*
X0286402Y0198647D01*
X0286400Y0198787D01*
X0286402Y0198927D01*
X0286408Y0199067D01*
X0286418Y0199207D01*
X0286431Y0199347D01*
X0286449Y0199486D01*
X0286471Y0199625D01*
X0286496Y0199762D01*
X0286525Y0199900D01*
X0286558Y0200036D01*
X0286595Y0200171D01*
X0286636Y0200305D01*
X0286681Y0200438D01*
X0286729Y0200570D01*
X0286781Y0200700D01*
X0286836Y0200829D01*
X0286895Y0200956D01*
X0286958Y0201082D01*
X0287024Y0201206D01*
X0287093Y0201327D01*
X0287166Y0201447D01*
X0287243Y0201565D01*
X0287322Y0201680D01*
X0287405Y0201794D01*
X0287491Y0201904D01*
X0287580Y0202013D01*
X0287672Y0202119D01*
X0287767Y0202222D01*
X0287864Y0202323D01*
X0287965Y0202420D01*
X0288068Y0202515D01*
X0288174Y0202607D01*
X0288283Y0202696D01*
X0288393Y0202782D01*
X0288507Y0202865D01*
X0288622Y0202944D01*
X0288740Y0203021D01*
X0288860Y0203094D01*
X0288981Y0203163D01*
X0289105Y0203229D01*
X0289231Y0203292D01*
X0289358Y0203351D01*
X0289487Y0203406D01*
X0289617Y0203458D01*
X0289749Y0203506D01*
X0289882Y0203551D01*
X0290016Y0203592D01*
X0290151Y0203629D01*
X0290287Y0203662D01*
X0290425Y0203691D01*
X0290562Y0203716D01*
X0290701Y0203738D01*
X0290840Y0203756D01*
X0290980Y0203769D01*
X0291120Y0203779D01*
X0291260Y0203785D01*
X0291400Y0203787D01*
X0386400Y0203787D01*
X0386540Y0203789D01*
X0386680Y0203795D01*
X0386820Y0203805D01*
X0386960Y0203818D01*
X0387099Y0203836D01*
X0387238Y0203858D01*
X0387375Y0203883D01*
X0387513Y0203912D01*
X0387649Y0203945D01*
X0387784Y0203982D01*
X0387918Y0204023D01*
X0388051Y0204068D01*
X0388183Y0204116D01*
X0388313Y0204168D01*
X0388442Y0204223D01*
X0388569Y0204282D01*
X0388695Y0204345D01*
X0388819Y0204411D01*
X0388940Y0204480D01*
X0389060Y0204553D01*
X0389178Y0204630D01*
X0389293Y0204709D01*
X0389407Y0204792D01*
X0389517Y0204878D01*
X0389626Y0204967D01*
X0389732Y0205059D01*
X0389835Y0205154D01*
X0389936Y0205251D01*
X0390033Y0205352D01*
X0390128Y0205455D01*
X0390220Y0205561D01*
X0390309Y0205670D01*
X0390395Y0205780D01*
X0390478Y0205894D01*
X0390557Y0206009D01*
X0390634Y0206127D01*
X0390707Y0206247D01*
X0390776Y0206368D01*
X0390842Y0206492D01*
X0390905Y0206618D01*
X0390964Y0206745D01*
X0391019Y0206874D01*
X0391071Y0207004D01*
X0391119Y0207136D01*
X0391164Y0207269D01*
X0391205Y0207403D01*
X0391242Y0207538D01*
X0391275Y0207674D01*
X0391304Y0207812D01*
X0391329Y0207949D01*
X0391351Y0208088D01*
X0391369Y0208227D01*
X0391382Y0208367D01*
X0391392Y0208507D01*
X0391398Y0208647D01*
X0391400Y0208787D01*
X0391400Y0388787D01*
X0391398Y0388927D01*
X0391392Y0389067D01*
X0391382Y0389207D01*
X0391369Y0389347D01*
X0391351Y0389486D01*
X0391329Y0389625D01*
X0391304Y0389762D01*
X0391275Y0389900D01*
X0391242Y0390036D01*
X0391205Y0390171D01*
X0391164Y0390305D01*
X0391119Y0390438D01*
X0391071Y0390570D01*
X0391019Y0390700D01*
X0390964Y0390829D01*
X0390905Y0390956D01*
X0390842Y0391082D01*
X0390776Y0391206D01*
X0390707Y0391327D01*
X0390634Y0391447D01*
X0390557Y0391565D01*
X0390478Y0391680D01*
X0390395Y0391794D01*
X0390309Y0391904D01*
X0390220Y0392013D01*
X0390128Y0392119D01*
X0390033Y0392222D01*
X0389936Y0392323D01*
X0389835Y0392420D01*
X0389732Y0392515D01*
X0389626Y0392607D01*
X0389517Y0392696D01*
X0389407Y0392782D01*
X0389293Y0392865D01*
X0389178Y0392944D01*
X0389060Y0393021D01*
X0388940Y0393094D01*
X0388819Y0393163D01*
X0388695Y0393229D01*
X0388569Y0393292D01*
X0388442Y0393351D01*
X0388313Y0393406D01*
X0388183Y0393458D01*
X0388051Y0393506D01*
X0387918Y0393551D01*
X0387784Y0393592D01*
X0387649Y0393629D01*
X0387513Y0393662D01*
X0387375Y0393691D01*
X0387238Y0393716D01*
X0387099Y0393738D01*
X0386960Y0393756D01*
X0386820Y0393769D01*
X0386680Y0393779D01*
X0386540Y0393785D01*
X0386400Y0393787D01*
X0006400Y0393787D01*
X0006260Y0393785D01*
X0006120Y0393779D01*
X0005980Y0393769D01*
X0005840Y0393756D01*
X0005701Y0393738D01*
X0005562Y0393716D01*
X0005425Y0393691D01*
X0005287Y0393662D01*
X0005151Y0393629D01*
X0005016Y0393592D01*
X0004882Y0393551D01*
X0004749Y0393506D01*
X0004617Y0393458D01*
X0004487Y0393406D01*
X0004358Y0393351D01*
X0004231Y0393292D01*
X0004105Y0393229D01*
X0003981Y0393163D01*
X0003860Y0393094D01*
X0003740Y0393021D01*
X0003622Y0392944D01*
X0003507Y0392865D01*
X0003393Y0392782D01*
X0003283Y0392696D01*
X0003174Y0392607D01*
X0003068Y0392515D01*
X0002965Y0392420D01*
X0002864Y0392323D01*
X0002767Y0392222D01*
X0002672Y0392119D01*
X0002580Y0392013D01*
X0002491Y0391904D01*
X0002405Y0391794D01*
X0002322Y0391680D01*
X0002243Y0391565D01*
X0002166Y0391447D01*
X0002093Y0391327D01*
X0002024Y0391206D01*
X0001958Y0391082D01*
X0001895Y0390956D01*
X0001836Y0390829D01*
X0001781Y0390700D01*
X0001729Y0390570D01*
X0001681Y0390438D01*
X0001636Y0390305D01*
X0001595Y0390171D01*
X0001558Y0390036D01*
X0001525Y0389900D01*
X0001496Y0389762D01*
X0001471Y0389625D01*
X0001449Y0389486D01*
X0001431Y0389347D01*
X0001418Y0389207D01*
X0001408Y0389067D01*
X0001402Y0388927D01*
X0001400Y0388787D01*
X0001400Y0208787D01*
X0001402Y0208647D01*
X0001408Y0208507D01*
X0001418Y0208367D01*
X0001431Y0208227D01*
X0001449Y0208088D01*
X0001471Y0207949D01*
X0001496Y0207812D01*
X0001525Y0207674D01*
X0001558Y0207538D01*
X0001595Y0207403D01*
X0001636Y0207269D01*
X0001681Y0207136D01*
X0001729Y0207004D01*
X0001781Y0206874D01*
X0001836Y0206745D01*
X0001895Y0206618D01*
X0001958Y0206492D01*
X0002024Y0206368D01*
X0002093Y0206247D01*
X0002166Y0206127D01*
X0002243Y0206009D01*
X0002322Y0205894D01*
X0002405Y0205780D01*
X0002491Y0205670D01*
X0002580Y0205561D01*
X0002672Y0205455D01*
X0002767Y0205352D01*
X0002864Y0205251D01*
X0002965Y0205154D01*
X0003068Y0205059D01*
X0003174Y0204967D01*
X0003283Y0204878D01*
X0003393Y0204792D01*
X0003507Y0204709D01*
X0003622Y0204630D01*
X0003740Y0204553D01*
X0003860Y0204480D01*
X0003981Y0204411D01*
X0004105Y0204345D01*
X0004231Y0204282D01*
X0004358Y0204223D01*
X0004487Y0204168D01*
X0004617Y0204116D01*
X0004749Y0204068D01*
X0004882Y0204023D01*
X0005016Y0203982D01*
X0005151Y0203945D01*
X0005287Y0203912D01*
X0005425Y0203883D01*
X0005562Y0203858D01*
X0005701Y0203836D01*
X0005840Y0203818D01*
X0005980Y0203805D01*
X0006120Y0203795D01*
X0006260Y0203789D01*
X0006400Y0203787D01*
X0111400Y0203787D01*
X0111540Y0203785D01*
X0111680Y0203779D01*
X0111820Y0203769D01*
X0111960Y0203756D01*
X0112099Y0203738D01*
X0112238Y0203716D01*
X0112375Y0203691D01*
X0112513Y0203662D01*
X0112649Y0203629D01*
X0112784Y0203592D01*
X0112918Y0203551D01*
X0113051Y0203506D01*
X0113183Y0203458D01*
X0113313Y0203406D01*
X0113442Y0203351D01*
X0113569Y0203292D01*
X0113695Y0203229D01*
X0113819Y0203163D01*
X0113940Y0203094D01*
X0114060Y0203021D01*
X0114178Y0202944D01*
X0114293Y0202865D01*
X0114407Y0202782D01*
X0114517Y0202696D01*
X0114626Y0202607D01*
X0114732Y0202515D01*
X0114835Y0202420D01*
X0114936Y0202323D01*
X0115033Y0202222D01*
X0115128Y0202119D01*
X0115220Y0202013D01*
X0115309Y0201904D01*
X0115395Y0201794D01*
X0115478Y0201680D01*
X0115557Y0201565D01*
X0115634Y0201447D01*
X0115707Y0201327D01*
X0115776Y0201206D01*
X0115842Y0201082D01*
X0115905Y0200956D01*
X0115964Y0200829D01*
X0116019Y0200700D01*
X0116071Y0200570D01*
X0116119Y0200438D01*
X0116164Y0200305D01*
X0116205Y0200171D01*
X0116242Y0200036D01*
X0116275Y0199900D01*
X0116304Y0199762D01*
X0116329Y0199625D01*
X0116351Y0199486D01*
X0116369Y0199347D01*
X0116382Y0199207D01*
X0116392Y0199067D01*
X0116398Y0198927D01*
X0116400Y0198787D01*
X0116398Y0198647D01*
X0116392Y0198507D01*
X0116382Y0198367D01*
X0116369Y0198227D01*
X0116351Y0198088D01*
X0116329Y0197949D01*
X0116304Y0197812D01*
X0116275Y0197674D01*
X0116242Y0197538D01*
X0116205Y0197403D01*
X0116164Y0197269D01*
X0116119Y0197136D01*
X0116071Y0197004D01*
X0116019Y0196874D01*
X0115964Y0196745D01*
X0115905Y0196618D01*
X0115842Y0196492D01*
X0115776Y0196368D01*
X0115707Y0196247D01*
X0115634Y0196127D01*
X0115557Y0196009D01*
X0115478Y0195894D01*
X0115395Y0195780D01*
X0115309Y0195670D01*
X0115220Y0195561D01*
X0115128Y0195455D01*
X0115033Y0195352D01*
X0114936Y0195251D01*
X0114835Y0195154D01*
X0114732Y0195059D01*
X0114626Y0194967D01*
X0114517Y0194878D01*
X0114407Y0194792D01*
X0114293Y0194709D01*
X0114178Y0194630D01*
X0114060Y0194553D01*
X0113940Y0194480D01*
X0113819Y0194411D01*
X0113695Y0194345D01*
X0113569Y0194282D01*
X0113442Y0194223D01*
X0113313Y0194168D01*
X0113183Y0194116D01*
X0113051Y0194068D01*
X0112918Y0194023D01*
X0112784Y0193982D01*
X0112649Y0193945D01*
X0112513Y0193912D01*
X0112375Y0193883D01*
X0112238Y0193858D01*
X0112099Y0193836D01*
X0111960Y0193818D01*
X0111820Y0193805D01*
X0111680Y0193795D01*
X0111540Y0193789D01*
X0111400Y0193787D01*
X0006400Y0193787D01*
X0006260Y0193785D01*
X0006120Y0193779D01*
X0005980Y0193769D01*
X0005840Y0193756D01*
X0005701Y0193738D01*
X0005562Y0193716D01*
X0005425Y0193691D01*
X0005287Y0193662D01*
X0005151Y0193629D01*
X0005016Y0193592D01*
X0004882Y0193551D01*
X0004749Y0193506D01*
X0004617Y0193458D01*
X0004487Y0193406D01*
X0004358Y0193351D01*
X0004231Y0193292D01*
X0004105Y0193229D01*
X0003981Y0193163D01*
X0003860Y0193094D01*
X0003740Y0193021D01*
X0003622Y0192944D01*
X0003507Y0192865D01*
X0003393Y0192782D01*
X0003283Y0192696D01*
X0003174Y0192607D01*
X0003068Y0192515D01*
X0002965Y0192420D01*
X0002864Y0192323D01*
X0002767Y0192222D01*
X0002672Y0192119D01*
X0002580Y0192013D01*
X0002491Y0191904D01*
X0002405Y0191794D01*
X0002322Y0191680D01*
X0002243Y0191565D01*
X0002166Y0191447D01*
X0002093Y0191327D01*
X0002024Y0191206D01*
X0001958Y0191082D01*
X0001895Y0190956D01*
X0001836Y0190829D01*
X0001781Y0190700D01*
X0001729Y0190570D01*
X0001681Y0190438D01*
X0001636Y0190305D01*
X0001595Y0190171D01*
X0001558Y0190036D01*
X0001525Y0189900D01*
X0001496Y0189762D01*
X0001471Y0189625D01*
X0001449Y0189486D01*
X0001431Y0189347D01*
X0001418Y0189207D01*
X0001408Y0189067D01*
X0001402Y0188927D01*
X0001400Y0188787D01*
X0001400Y0008787D01*
X0001402Y0008647D01*
X0001408Y0008507D01*
X0001418Y0008367D01*
X0001431Y0008227D01*
X0001449Y0008088D01*
X0001471Y0007949D01*
X0001496Y0007812D01*
X0001525Y0007674D01*
X0001558Y0007538D01*
X0001595Y0007403D01*
X0001636Y0007269D01*
X0001681Y0007136D01*
X0001729Y0007004D01*
X0001781Y0006874D01*
X0001836Y0006745D01*
X0001895Y0006618D01*
X0001958Y0006492D01*
X0002024Y0006368D01*
X0002093Y0006247D01*
X0002166Y0006127D01*
X0002243Y0006009D01*
X0002322Y0005894D01*
X0002405Y0005780D01*
X0002491Y0005670D01*
X0002580Y0005561D01*
X0002672Y0005455D01*
X0002767Y0005352D01*
X0002864Y0005251D01*
X0002965Y0005154D01*
X0003068Y0005059D01*
X0003174Y0004967D01*
X0003283Y0004878D01*
X0003393Y0004792D01*
X0003507Y0004709D01*
X0003622Y0004630D01*
X0003740Y0004553D01*
X0003860Y0004480D01*
X0003981Y0004411D01*
X0004105Y0004345D01*
X0004231Y0004282D01*
X0004358Y0004223D01*
X0004487Y0004168D01*
X0004617Y0004116D01*
X0004749Y0004068D01*
X0004882Y0004023D01*
X0005016Y0003982D01*
X0005151Y0003945D01*
X0005287Y0003912D01*
X0005425Y0003883D01*
X0005562Y0003858D01*
X0005701Y0003836D01*
X0005840Y0003818D01*
X0005980Y0003805D01*
X0006120Y0003795D01*
X0006260Y0003789D01*
X0006400Y0003787D01*
X0082463Y0227537D02*
X0082465Y0227662D01*
X0082471Y0227787D01*
X0082481Y0227911D01*
X0082495Y0228035D01*
X0082512Y0228159D01*
X0082534Y0228282D01*
X0082560Y0228404D01*
X0082589Y0228526D01*
X0082622Y0228646D01*
X0082660Y0228765D01*
X0082700Y0228884D01*
X0082745Y0229000D01*
X0082793Y0229115D01*
X0082845Y0229229D01*
X0082901Y0229341D01*
X0082960Y0229451D01*
X0083022Y0229559D01*
X0083088Y0229666D01*
X0083157Y0229770D01*
X0083230Y0229871D01*
X0083305Y0229971D01*
X0083384Y0230068D01*
X0083466Y0230162D01*
X0083551Y0230254D01*
X0083638Y0230343D01*
X0083729Y0230429D01*
X0083822Y0230512D01*
X0083918Y0230593D01*
X0084016Y0230670D01*
X0084116Y0230744D01*
X0084219Y0230815D01*
X0084324Y0230882D01*
X0084432Y0230947D01*
X0084541Y0231007D01*
X0084652Y0231065D01*
X0084765Y0231118D01*
X0084879Y0231168D01*
X0084995Y0231215D01*
X0085112Y0231257D01*
X0085231Y0231296D01*
X0085351Y0231332D01*
X0085472Y0231363D01*
X0085594Y0231391D01*
X0085716Y0231414D01*
X0085840Y0231434D01*
X0085964Y0231450D01*
X0086088Y0231462D01*
X0086213Y0231470D01*
X0086338Y0231474D01*
X0086462Y0231474D01*
X0086587Y0231470D01*
X0086712Y0231462D01*
X0086836Y0231450D01*
X0086960Y0231434D01*
X0087084Y0231414D01*
X0087206Y0231391D01*
X0087328Y0231363D01*
X0087449Y0231332D01*
X0087569Y0231296D01*
X0087688Y0231257D01*
X0087805Y0231215D01*
X0087921Y0231168D01*
X0088035Y0231118D01*
X0088148Y0231065D01*
X0088259Y0231007D01*
X0088369Y0230947D01*
X0088476Y0230882D01*
X0088581Y0230815D01*
X0088684Y0230744D01*
X0088784Y0230670D01*
X0088882Y0230593D01*
X0088978Y0230512D01*
X0089071Y0230429D01*
X0089162Y0230343D01*
X0089249Y0230254D01*
X0089334Y0230162D01*
X0089416Y0230068D01*
X0089495Y0229971D01*
X0089570Y0229871D01*
X0089643Y0229770D01*
X0089712Y0229666D01*
X0089778Y0229559D01*
X0089840Y0229451D01*
X0089899Y0229341D01*
X0089955Y0229229D01*
X0090007Y0229115D01*
X0090055Y0229000D01*
X0090100Y0228884D01*
X0090140Y0228765D01*
X0090178Y0228646D01*
X0090211Y0228526D01*
X0090240Y0228404D01*
X0090266Y0228282D01*
X0090288Y0228159D01*
X0090305Y0228035D01*
X0090319Y0227911D01*
X0090329Y0227787D01*
X0090335Y0227662D01*
X0090337Y0227537D01*
X0090335Y0227412D01*
X0090329Y0227287D01*
X0090319Y0227163D01*
X0090305Y0227039D01*
X0090288Y0226915D01*
X0090266Y0226792D01*
X0090240Y0226670D01*
X0090211Y0226548D01*
X0090178Y0226428D01*
X0090140Y0226309D01*
X0090100Y0226190D01*
X0090055Y0226074D01*
X0090007Y0225959D01*
X0089955Y0225845D01*
X0089899Y0225733D01*
X0089840Y0225623D01*
X0089778Y0225515D01*
X0089712Y0225408D01*
X0089643Y0225304D01*
X0089570Y0225203D01*
X0089495Y0225103D01*
X0089416Y0225006D01*
X0089334Y0224912D01*
X0089249Y0224820D01*
X0089162Y0224731D01*
X0089071Y0224645D01*
X0088978Y0224562D01*
X0088882Y0224481D01*
X0088784Y0224404D01*
X0088684Y0224330D01*
X0088581Y0224259D01*
X0088476Y0224192D01*
X0088368Y0224127D01*
X0088259Y0224067D01*
X0088148Y0224009D01*
X0088035Y0223956D01*
X0087921Y0223906D01*
X0087805Y0223859D01*
X0087688Y0223817D01*
X0087569Y0223778D01*
X0087449Y0223742D01*
X0087328Y0223711D01*
X0087206Y0223683D01*
X0087084Y0223660D01*
X0086960Y0223640D01*
X0086836Y0223624D01*
X0086712Y0223612D01*
X0086587Y0223604D01*
X0086462Y0223600D01*
X0086338Y0223600D01*
X0086213Y0223604D01*
X0086088Y0223612D01*
X0085964Y0223624D01*
X0085840Y0223640D01*
X0085716Y0223660D01*
X0085594Y0223683D01*
X0085472Y0223711D01*
X0085351Y0223742D01*
X0085231Y0223778D01*
X0085112Y0223817D01*
X0084995Y0223859D01*
X0084879Y0223906D01*
X0084765Y0223956D01*
X0084652Y0224009D01*
X0084541Y0224067D01*
X0084431Y0224127D01*
X0084324Y0224192D01*
X0084219Y0224259D01*
X0084116Y0224330D01*
X0084016Y0224404D01*
X0083918Y0224481D01*
X0083822Y0224562D01*
X0083729Y0224645D01*
X0083638Y0224731D01*
X0083551Y0224820D01*
X0083466Y0224912D01*
X0083384Y0225006D01*
X0083305Y0225103D01*
X0083230Y0225203D01*
X0083157Y0225304D01*
X0083088Y0225408D01*
X0083022Y0225515D01*
X0082960Y0225623D01*
X0082901Y0225733D01*
X0082845Y0225845D01*
X0082793Y0225959D01*
X0082745Y0226074D01*
X0082700Y0226190D01*
X0082660Y0226309D01*
X0082622Y0226428D01*
X0082589Y0226548D01*
X0082560Y0226670D01*
X0082534Y0226792D01*
X0082512Y0226915D01*
X0082495Y0227039D01*
X0082481Y0227163D01*
X0082471Y0227287D01*
X0082465Y0227412D01*
X0082463Y0227537D01*
X0082463Y0337537D02*
X0082465Y0337662D01*
X0082471Y0337787D01*
X0082481Y0337911D01*
X0082495Y0338035D01*
X0082512Y0338159D01*
X0082534Y0338282D01*
X0082560Y0338404D01*
X0082589Y0338526D01*
X0082622Y0338646D01*
X0082660Y0338765D01*
X0082700Y0338884D01*
X0082745Y0339000D01*
X0082793Y0339115D01*
X0082845Y0339229D01*
X0082901Y0339341D01*
X0082960Y0339451D01*
X0083022Y0339559D01*
X0083088Y0339666D01*
X0083157Y0339770D01*
X0083230Y0339871D01*
X0083305Y0339971D01*
X0083384Y0340068D01*
X0083466Y0340162D01*
X0083551Y0340254D01*
X0083638Y0340343D01*
X0083729Y0340429D01*
X0083822Y0340512D01*
X0083918Y0340593D01*
X0084016Y0340670D01*
X0084116Y0340744D01*
X0084219Y0340815D01*
X0084324Y0340882D01*
X0084432Y0340947D01*
X0084541Y0341007D01*
X0084652Y0341065D01*
X0084765Y0341118D01*
X0084879Y0341168D01*
X0084995Y0341215D01*
X0085112Y0341257D01*
X0085231Y0341296D01*
X0085351Y0341332D01*
X0085472Y0341363D01*
X0085594Y0341391D01*
X0085716Y0341414D01*
X0085840Y0341434D01*
X0085964Y0341450D01*
X0086088Y0341462D01*
X0086213Y0341470D01*
X0086338Y0341474D01*
X0086462Y0341474D01*
X0086587Y0341470D01*
X0086712Y0341462D01*
X0086836Y0341450D01*
X0086960Y0341434D01*
X0087084Y0341414D01*
X0087206Y0341391D01*
X0087328Y0341363D01*
X0087449Y0341332D01*
X0087569Y0341296D01*
X0087688Y0341257D01*
X0087805Y0341215D01*
X0087921Y0341168D01*
X0088035Y0341118D01*
X0088148Y0341065D01*
X0088259Y0341007D01*
X0088369Y0340947D01*
X0088476Y0340882D01*
X0088581Y0340815D01*
X0088684Y0340744D01*
X0088784Y0340670D01*
X0088882Y0340593D01*
X0088978Y0340512D01*
X0089071Y0340429D01*
X0089162Y0340343D01*
X0089249Y0340254D01*
X0089334Y0340162D01*
X0089416Y0340068D01*
X0089495Y0339971D01*
X0089570Y0339871D01*
X0089643Y0339770D01*
X0089712Y0339666D01*
X0089778Y0339559D01*
X0089840Y0339451D01*
X0089899Y0339341D01*
X0089955Y0339229D01*
X0090007Y0339115D01*
X0090055Y0339000D01*
X0090100Y0338884D01*
X0090140Y0338765D01*
X0090178Y0338646D01*
X0090211Y0338526D01*
X0090240Y0338404D01*
X0090266Y0338282D01*
X0090288Y0338159D01*
X0090305Y0338035D01*
X0090319Y0337911D01*
X0090329Y0337787D01*
X0090335Y0337662D01*
X0090337Y0337537D01*
X0090335Y0337412D01*
X0090329Y0337287D01*
X0090319Y0337163D01*
X0090305Y0337039D01*
X0090288Y0336915D01*
X0090266Y0336792D01*
X0090240Y0336670D01*
X0090211Y0336548D01*
X0090178Y0336428D01*
X0090140Y0336309D01*
X0090100Y0336190D01*
X0090055Y0336074D01*
X0090007Y0335959D01*
X0089955Y0335845D01*
X0089899Y0335733D01*
X0089840Y0335623D01*
X0089778Y0335515D01*
X0089712Y0335408D01*
X0089643Y0335304D01*
X0089570Y0335203D01*
X0089495Y0335103D01*
X0089416Y0335006D01*
X0089334Y0334912D01*
X0089249Y0334820D01*
X0089162Y0334731D01*
X0089071Y0334645D01*
X0088978Y0334562D01*
X0088882Y0334481D01*
X0088784Y0334404D01*
X0088684Y0334330D01*
X0088581Y0334259D01*
X0088476Y0334192D01*
X0088368Y0334127D01*
X0088259Y0334067D01*
X0088148Y0334009D01*
X0088035Y0333956D01*
X0087921Y0333906D01*
X0087805Y0333859D01*
X0087688Y0333817D01*
X0087569Y0333778D01*
X0087449Y0333742D01*
X0087328Y0333711D01*
X0087206Y0333683D01*
X0087084Y0333660D01*
X0086960Y0333640D01*
X0086836Y0333624D01*
X0086712Y0333612D01*
X0086587Y0333604D01*
X0086462Y0333600D01*
X0086338Y0333600D01*
X0086213Y0333604D01*
X0086088Y0333612D01*
X0085964Y0333624D01*
X0085840Y0333640D01*
X0085716Y0333660D01*
X0085594Y0333683D01*
X0085472Y0333711D01*
X0085351Y0333742D01*
X0085231Y0333778D01*
X0085112Y0333817D01*
X0084995Y0333859D01*
X0084879Y0333906D01*
X0084765Y0333956D01*
X0084652Y0334009D01*
X0084541Y0334067D01*
X0084431Y0334127D01*
X0084324Y0334192D01*
X0084219Y0334259D01*
X0084116Y0334330D01*
X0084016Y0334404D01*
X0083918Y0334481D01*
X0083822Y0334562D01*
X0083729Y0334645D01*
X0083638Y0334731D01*
X0083551Y0334820D01*
X0083466Y0334912D01*
X0083384Y0335006D01*
X0083305Y0335103D01*
X0083230Y0335203D01*
X0083157Y0335304D01*
X0083088Y0335408D01*
X0083022Y0335515D01*
X0082960Y0335623D01*
X0082901Y0335733D01*
X0082845Y0335845D01*
X0082793Y0335959D01*
X0082745Y0336074D01*
X0082700Y0336190D01*
X0082660Y0336309D01*
X0082622Y0336428D01*
X0082589Y0336548D01*
X0082560Y0336670D01*
X0082534Y0336792D01*
X0082512Y0336915D01*
X0082495Y0337039D01*
X0082481Y0337163D01*
X0082471Y0337287D01*
X0082465Y0337412D01*
X0082463Y0337537D01*
X0261754Y0331406D02*
X0261756Y0331475D01*
X0261762Y0331543D01*
X0261772Y0331611D01*
X0261786Y0331678D01*
X0261804Y0331745D01*
X0261825Y0331810D01*
X0261851Y0331874D01*
X0261880Y0331936D01*
X0261912Y0331996D01*
X0261948Y0332055D01*
X0261988Y0332111D01*
X0262030Y0332165D01*
X0262076Y0332216D01*
X0262125Y0332265D01*
X0262176Y0332311D01*
X0262230Y0332353D01*
X0262286Y0332393D01*
X0262344Y0332429D01*
X0262405Y0332461D01*
X0262467Y0332490D01*
X0262531Y0332516D01*
X0262596Y0332537D01*
X0262663Y0332555D01*
X0262730Y0332569D01*
X0262798Y0332579D01*
X0262866Y0332585D01*
X0262935Y0332587D01*
X0263004Y0332585D01*
X0263072Y0332579D01*
X0263140Y0332569D01*
X0263207Y0332555D01*
X0263274Y0332537D01*
X0263339Y0332516D01*
X0263403Y0332490D01*
X0263465Y0332461D01*
X0263525Y0332429D01*
X0263584Y0332393D01*
X0263640Y0332353D01*
X0263694Y0332311D01*
X0263745Y0332265D01*
X0263794Y0332216D01*
X0263840Y0332165D01*
X0263882Y0332111D01*
X0263922Y0332055D01*
X0263958Y0331996D01*
X0263990Y0331936D01*
X0264019Y0331874D01*
X0264045Y0331810D01*
X0264066Y0331745D01*
X0264084Y0331678D01*
X0264098Y0331611D01*
X0264108Y0331543D01*
X0264114Y0331475D01*
X0264116Y0331406D01*
X0264114Y0331337D01*
X0264108Y0331269D01*
X0264098Y0331201D01*
X0264084Y0331134D01*
X0264066Y0331067D01*
X0264045Y0331002D01*
X0264019Y0330938D01*
X0263990Y0330876D01*
X0263958Y0330815D01*
X0263922Y0330757D01*
X0263882Y0330701D01*
X0263840Y0330647D01*
X0263794Y0330596D01*
X0263745Y0330547D01*
X0263694Y0330501D01*
X0263640Y0330459D01*
X0263584Y0330419D01*
X0263526Y0330383D01*
X0263465Y0330351D01*
X0263403Y0330322D01*
X0263339Y0330296D01*
X0263274Y0330275D01*
X0263207Y0330257D01*
X0263140Y0330243D01*
X0263072Y0330233D01*
X0263004Y0330227D01*
X0262935Y0330225D01*
X0262866Y0330227D01*
X0262798Y0330233D01*
X0262730Y0330243D01*
X0262663Y0330257D01*
X0262596Y0330275D01*
X0262531Y0330296D01*
X0262467Y0330322D01*
X0262405Y0330351D01*
X0262344Y0330383D01*
X0262286Y0330419D01*
X0262230Y0330459D01*
X0262176Y0330501D01*
X0262125Y0330547D01*
X0262076Y0330596D01*
X0262030Y0330647D01*
X0261988Y0330701D01*
X0261948Y0330757D01*
X0261912Y0330815D01*
X0261880Y0330876D01*
X0261851Y0330938D01*
X0261825Y0331002D01*
X0261804Y0331067D01*
X0261786Y0331134D01*
X0261772Y0331201D01*
X0261762Y0331269D01*
X0261756Y0331337D01*
X0261754Y0331406D01*
X0292463Y0337537D02*
X0292465Y0337662D01*
X0292471Y0337787D01*
X0292481Y0337911D01*
X0292495Y0338035D01*
X0292512Y0338159D01*
X0292534Y0338282D01*
X0292560Y0338404D01*
X0292589Y0338526D01*
X0292622Y0338646D01*
X0292660Y0338765D01*
X0292700Y0338884D01*
X0292745Y0339000D01*
X0292793Y0339115D01*
X0292845Y0339229D01*
X0292901Y0339341D01*
X0292960Y0339451D01*
X0293022Y0339559D01*
X0293088Y0339666D01*
X0293157Y0339770D01*
X0293230Y0339871D01*
X0293305Y0339971D01*
X0293384Y0340068D01*
X0293466Y0340162D01*
X0293551Y0340254D01*
X0293638Y0340343D01*
X0293729Y0340429D01*
X0293822Y0340512D01*
X0293918Y0340593D01*
X0294016Y0340670D01*
X0294116Y0340744D01*
X0294219Y0340815D01*
X0294324Y0340882D01*
X0294432Y0340947D01*
X0294541Y0341007D01*
X0294652Y0341065D01*
X0294765Y0341118D01*
X0294879Y0341168D01*
X0294995Y0341215D01*
X0295112Y0341257D01*
X0295231Y0341296D01*
X0295351Y0341332D01*
X0295472Y0341363D01*
X0295594Y0341391D01*
X0295716Y0341414D01*
X0295840Y0341434D01*
X0295964Y0341450D01*
X0296088Y0341462D01*
X0296213Y0341470D01*
X0296338Y0341474D01*
X0296462Y0341474D01*
X0296587Y0341470D01*
X0296712Y0341462D01*
X0296836Y0341450D01*
X0296960Y0341434D01*
X0297084Y0341414D01*
X0297206Y0341391D01*
X0297328Y0341363D01*
X0297449Y0341332D01*
X0297569Y0341296D01*
X0297688Y0341257D01*
X0297805Y0341215D01*
X0297921Y0341168D01*
X0298035Y0341118D01*
X0298148Y0341065D01*
X0298259Y0341007D01*
X0298369Y0340947D01*
X0298476Y0340882D01*
X0298581Y0340815D01*
X0298684Y0340744D01*
X0298784Y0340670D01*
X0298882Y0340593D01*
X0298978Y0340512D01*
X0299071Y0340429D01*
X0299162Y0340343D01*
X0299249Y0340254D01*
X0299334Y0340162D01*
X0299416Y0340068D01*
X0299495Y0339971D01*
X0299570Y0339871D01*
X0299643Y0339770D01*
X0299712Y0339666D01*
X0299778Y0339559D01*
X0299840Y0339451D01*
X0299899Y0339341D01*
X0299955Y0339229D01*
X0300007Y0339115D01*
X0300055Y0339000D01*
X0300100Y0338884D01*
X0300140Y0338765D01*
X0300178Y0338646D01*
X0300211Y0338526D01*
X0300240Y0338404D01*
X0300266Y0338282D01*
X0300288Y0338159D01*
X0300305Y0338035D01*
X0300319Y0337911D01*
X0300329Y0337787D01*
X0300335Y0337662D01*
X0300337Y0337537D01*
X0300335Y0337412D01*
X0300329Y0337287D01*
X0300319Y0337163D01*
X0300305Y0337039D01*
X0300288Y0336915D01*
X0300266Y0336792D01*
X0300240Y0336670D01*
X0300211Y0336548D01*
X0300178Y0336428D01*
X0300140Y0336309D01*
X0300100Y0336190D01*
X0300055Y0336074D01*
X0300007Y0335959D01*
X0299955Y0335845D01*
X0299899Y0335733D01*
X0299840Y0335623D01*
X0299778Y0335515D01*
X0299712Y0335408D01*
X0299643Y0335304D01*
X0299570Y0335203D01*
X0299495Y0335103D01*
X0299416Y0335006D01*
X0299334Y0334912D01*
X0299249Y0334820D01*
X0299162Y0334731D01*
X0299071Y0334645D01*
X0298978Y0334562D01*
X0298882Y0334481D01*
X0298784Y0334404D01*
X0298684Y0334330D01*
X0298581Y0334259D01*
X0298476Y0334192D01*
X0298368Y0334127D01*
X0298259Y0334067D01*
X0298148Y0334009D01*
X0298035Y0333956D01*
X0297921Y0333906D01*
X0297805Y0333859D01*
X0297688Y0333817D01*
X0297569Y0333778D01*
X0297449Y0333742D01*
X0297328Y0333711D01*
X0297206Y0333683D01*
X0297084Y0333660D01*
X0296960Y0333640D01*
X0296836Y0333624D01*
X0296712Y0333612D01*
X0296587Y0333604D01*
X0296462Y0333600D01*
X0296338Y0333600D01*
X0296213Y0333604D01*
X0296088Y0333612D01*
X0295964Y0333624D01*
X0295840Y0333640D01*
X0295716Y0333660D01*
X0295594Y0333683D01*
X0295472Y0333711D01*
X0295351Y0333742D01*
X0295231Y0333778D01*
X0295112Y0333817D01*
X0294995Y0333859D01*
X0294879Y0333906D01*
X0294765Y0333956D01*
X0294652Y0334009D01*
X0294541Y0334067D01*
X0294431Y0334127D01*
X0294324Y0334192D01*
X0294219Y0334259D01*
X0294116Y0334330D01*
X0294016Y0334404D01*
X0293918Y0334481D01*
X0293822Y0334562D01*
X0293729Y0334645D01*
X0293638Y0334731D01*
X0293551Y0334820D01*
X0293466Y0334912D01*
X0293384Y0335006D01*
X0293305Y0335103D01*
X0293230Y0335203D01*
X0293157Y0335304D01*
X0293088Y0335408D01*
X0293022Y0335515D01*
X0292960Y0335623D01*
X0292901Y0335733D01*
X0292845Y0335845D01*
X0292793Y0335959D01*
X0292745Y0336074D01*
X0292700Y0336190D01*
X0292660Y0336309D01*
X0292622Y0336428D01*
X0292589Y0336548D01*
X0292560Y0336670D01*
X0292534Y0336792D01*
X0292512Y0336915D01*
X0292495Y0337039D01*
X0292481Y0337163D01*
X0292471Y0337287D01*
X0292465Y0337412D01*
X0292463Y0337537D01*
X0261754Y0250894D02*
X0261756Y0250963D01*
X0261762Y0251031D01*
X0261772Y0251099D01*
X0261786Y0251166D01*
X0261804Y0251233D01*
X0261825Y0251298D01*
X0261851Y0251362D01*
X0261880Y0251424D01*
X0261912Y0251484D01*
X0261948Y0251543D01*
X0261988Y0251599D01*
X0262030Y0251653D01*
X0262076Y0251704D01*
X0262125Y0251753D01*
X0262176Y0251799D01*
X0262230Y0251841D01*
X0262286Y0251881D01*
X0262344Y0251917D01*
X0262405Y0251949D01*
X0262467Y0251978D01*
X0262531Y0252004D01*
X0262596Y0252025D01*
X0262663Y0252043D01*
X0262730Y0252057D01*
X0262798Y0252067D01*
X0262866Y0252073D01*
X0262935Y0252075D01*
X0263004Y0252073D01*
X0263072Y0252067D01*
X0263140Y0252057D01*
X0263207Y0252043D01*
X0263274Y0252025D01*
X0263339Y0252004D01*
X0263403Y0251978D01*
X0263465Y0251949D01*
X0263525Y0251917D01*
X0263584Y0251881D01*
X0263640Y0251841D01*
X0263694Y0251799D01*
X0263745Y0251753D01*
X0263794Y0251704D01*
X0263840Y0251653D01*
X0263882Y0251599D01*
X0263922Y0251543D01*
X0263958Y0251484D01*
X0263990Y0251424D01*
X0264019Y0251362D01*
X0264045Y0251298D01*
X0264066Y0251233D01*
X0264084Y0251166D01*
X0264098Y0251099D01*
X0264108Y0251031D01*
X0264114Y0250963D01*
X0264116Y0250894D01*
X0264114Y0250825D01*
X0264108Y0250757D01*
X0264098Y0250689D01*
X0264084Y0250622D01*
X0264066Y0250555D01*
X0264045Y0250490D01*
X0264019Y0250426D01*
X0263990Y0250364D01*
X0263958Y0250303D01*
X0263922Y0250245D01*
X0263882Y0250189D01*
X0263840Y0250135D01*
X0263794Y0250084D01*
X0263745Y0250035D01*
X0263694Y0249989D01*
X0263640Y0249947D01*
X0263584Y0249907D01*
X0263526Y0249871D01*
X0263465Y0249839D01*
X0263403Y0249810D01*
X0263339Y0249784D01*
X0263274Y0249763D01*
X0263207Y0249745D01*
X0263140Y0249731D01*
X0263072Y0249721D01*
X0263004Y0249715D01*
X0262935Y0249713D01*
X0262866Y0249715D01*
X0262798Y0249721D01*
X0262730Y0249731D01*
X0262663Y0249745D01*
X0262596Y0249763D01*
X0262531Y0249784D01*
X0262467Y0249810D01*
X0262405Y0249839D01*
X0262344Y0249871D01*
X0262286Y0249907D01*
X0262230Y0249947D01*
X0262176Y0249989D01*
X0262125Y0250035D01*
X0262076Y0250084D01*
X0262030Y0250135D01*
X0261988Y0250189D01*
X0261948Y0250245D01*
X0261912Y0250303D01*
X0261880Y0250364D01*
X0261851Y0250426D01*
X0261825Y0250490D01*
X0261804Y0250555D01*
X0261786Y0250622D01*
X0261772Y0250689D01*
X0261762Y0250757D01*
X0261756Y0250825D01*
X0261754Y0250894D01*
X0377463Y0227537D02*
X0377465Y0227662D01*
X0377471Y0227787D01*
X0377481Y0227911D01*
X0377495Y0228035D01*
X0377512Y0228159D01*
X0377534Y0228282D01*
X0377560Y0228404D01*
X0377589Y0228526D01*
X0377622Y0228646D01*
X0377660Y0228765D01*
X0377700Y0228884D01*
X0377745Y0229000D01*
X0377793Y0229115D01*
X0377845Y0229229D01*
X0377901Y0229341D01*
X0377960Y0229451D01*
X0378022Y0229559D01*
X0378088Y0229666D01*
X0378157Y0229770D01*
X0378230Y0229871D01*
X0378305Y0229971D01*
X0378384Y0230068D01*
X0378466Y0230162D01*
X0378551Y0230254D01*
X0378638Y0230343D01*
X0378729Y0230429D01*
X0378822Y0230512D01*
X0378918Y0230593D01*
X0379016Y0230670D01*
X0379116Y0230744D01*
X0379219Y0230815D01*
X0379324Y0230882D01*
X0379432Y0230947D01*
X0379541Y0231007D01*
X0379652Y0231065D01*
X0379765Y0231118D01*
X0379879Y0231168D01*
X0379995Y0231215D01*
X0380112Y0231257D01*
X0380231Y0231296D01*
X0380351Y0231332D01*
X0380472Y0231363D01*
X0380594Y0231391D01*
X0380716Y0231414D01*
X0380840Y0231434D01*
X0380964Y0231450D01*
X0381088Y0231462D01*
X0381213Y0231470D01*
X0381338Y0231474D01*
X0381462Y0231474D01*
X0381587Y0231470D01*
X0381712Y0231462D01*
X0381836Y0231450D01*
X0381960Y0231434D01*
X0382084Y0231414D01*
X0382206Y0231391D01*
X0382328Y0231363D01*
X0382449Y0231332D01*
X0382569Y0231296D01*
X0382688Y0231257D01*
X0382805Y0231215D01*
X0382921Y0231168D01*
X0383035Y0231118D01*
X0383148Y0231065D01*
X0383259Y0231007D01*
X0383369Y0230947D01*
X0383476Y0230882D01*
X0383581Y0230815D01*
X0383684Y0230744D01*
X0383784Y0230670D01*
X0383882Y0230593D01*
X0383978Y0230512D01*
X0384071Y0230429D01*
X0384162Y0230343D01*
X0384249Y0230254D01*
X0384334Y0230162D01*
X0384416Y0230068D01*
X0384495Y0229971D01*
X0384570Y0229871D01*
X0384643Y0229770D01*
X0384712Y0229666D01*
X0384778Y0229559D01*
X0384840Y0229451D01*
X0384899Y0229341D01*
X0384955Y0229229D01*
X0385007Y0229115D01*
X0385055Y0229000D01*
X0385100Y0228884D01*
X0385140Y0228765D01*
X0385178Y0228646D01*
X0385211Y0228526D01*
X0385240Y0228404D01*
X0385266Y0228282D01*
X0385288Y0228159D01*
X0385305Y0228035D01*
X0385319Y0227911D01*
X0385329Y0227787D01*
X0385335Y0227662D01*
X0385337Y0227537D01*
X0385335Y0227412D01*
X0385329Y0227287D01*
X0385319Y0227163D01*
X0385305Y0227039D01*
X0385288Y0226915D01*
X0385266Y0226792D01*
X0385240Y0226670D01*
X0385211Y0226548D01*
X0385178Y0226428D01*
X0385140Y0226309D01*
X0385100Y0226190D01*
X0385055Y0226074D01*
X0385007Y0225959D01*
X0384955Y0225845D01*
X0384899Y0225733D01*
X0384840Y0225623D01*
X0384778Y0225515D01*
X0384712Y0225408D01*
X0384643Y0225304D01*
X0384570Y0225203D01*
X0384495Y0225103D01*
X0384416Y0225006D01*
X0384334Y0224912D01*
X0384249Y0224820D01*
X0384162Y0224731D01*
X0384071Y0224645D01*
X0383978Y0224562D01*
X0383882Y0224481D01*
X0383784Y0224404D01*
X0383684Y0224330D01*
X0383581Y0224259D01*
X0383476Y0224192D01*
X0383368Y0224127D01*
X0383259Y0224067D01*
X0383148Y0224009D01*
X0383035Y0223956D01*
X0382921Y0223906D01*
X0382805Y0223859D01*
X0382688Y0223817D01*
X0382569Y0223778D01*
X0382449Y0223742D01*
X0382328Y0223711D01*
X0382206Y0223683D01*
X0382084Y0223660D01*
X0381960Y0223640D01*
X0381836Y0223624D01*
X0381712Y0223612D01*
X0381587Y0223604D01*
X0381462Y0223600D01*
X0381338Y0223600D01*
X0381213Y0223604D01*
X0381088Y0223612D01*
X0380964Y0223624D01*
X0380840Y0223640D01*
X0380716Y0223660D01*
X0380594Y0223683D01*
X0380472Y0223711D01*
X0380351Y0223742D01*
X0380231Y0223778D01*
X0380112Y0223817D01*
X0379995Y0223859D01*
X0379879Y0223906D01*
X0379765Y0223956D01*
X0379652Y0224009D01*
X0379541Y0224067D01*
X0379431Y0224127D01*
X0379324Y0224192D01*
X0379219Y0224259D01*
X0379116Y0224330D01*
X0379016Y0224404D01*
X0378918Y0224481D01*
X0378822Y0224562D01*
X0378729Y0224645D01*
X0378638Y0224731D01*
X0378551Y0224820D01*
X0378466Y0224912D01*
X0378384Y0225006D01*
X0378305Y0225103D01*
X0378230Y0225203D01*
X0378157Y0225304D01*
X0378088Y0225408D01*
X0378022Y0225515D01*
X0377960Y0225623D01*
X0377901Y0225733D01*
X0377845Y0225845D01*
X0377793Y0225959D01*
X0377745Y0226074D01*
X0377700Y0226190D01*
X0377660Y0226309D01*
X0377622Y0226428D01*
X0377589Y0226548D01*
X0377560Y0226670D01*
X0377534Y0226792D01*
X0377512Y0226915D01*
X0377495Y0227039D01*
X0377481Y0227163D01*
X0377471Y0227287D01*
X0377465Y0227412D01*
X0377463Y0227537D01*
X0377463Y0350037D02*
X0377465Y0350162D01*
X0377471Y0350287D01*
X0377481Y0350411D01*
X0377495Y0350535D01*
X0377512Y0350659D01*
X0377534Y0350782D01*
X0377560Y0350904D01*
X0377589Y0351026D01*
X0377622Y0351146D01*
X0377660Y0351265D01*
X0377700Y0351384D01*
X0377745Y0351500D01*
X0377793Y0351615D01*
X0377845Y0351729D01*
X0377901Y0351841D01*
X0377960Y0351951D01*
X0378022Y0352059D01*
X0378088Y0352166D01*
X0378157Y0352270D01*
X0378230Y0352371D01*
X0378305Y0352471D01*
X0378384Y0352568D01*
X0378466Y0352662D01*
X0378551Y0352754D01*
X0378638Y0352843D01*
X0378729Y0352929D01*
X0378822Y0353012D01*
X0378918Y0353093D01*
X0379016Y0353170D01*
X0379116Y0353244D01*
X0379219Y0353315D01*
X0379324Y0353382D01*
X0379432Y0353447D01*
X0379541Y0353507D01*
X0379652Y0353565D01*
X0379765Y0353618D01*
X0379879Y0353668D01*
X0379995Y0353715D01*
X0380112Y0353757D01*
X0380231Y0353796D01*
X0380351Y0353832D01*
X0380472Y0353863D01*
X0380594Y0353891D01*
X0380716Y0353914D01*
X0380840Y0353934D01*
X0380964Y0353950D01*
X0381088Y0353962D01*
X0381213Y0353970D01*
X0381338Y0353974D01*
X0381462Y0353974D01*
X0381587Y0353970D01*
X0381712Y0353962D01*
X0381836Y0353950D01*
X0381960Y0353934D01*
X0382084Y0353914D01*
X0382206Y0353891D01*
X0382328Y0353863D01*
X0382449Y0353832D01*
X0382569Y0353796D01*
X0382688Y0353757D01*
X0382805Y0353715D01*
X0382921Y0353668D01*
X0383035Y0353618D01*
X0383148Y0353565D01*
X0383259Y0353507D01*
X0383369Y0353447D01*
X0383476Y0353382D01*
X0383581Y0353315D01*
X0383684Y0353244D01*
X0383784Y0353170D01*
X0383882Y0353093D01*
X0383978Y0353012D01*
X0384071Y0352929D01*
X0384162Y0352843D01*
X0384249Y0352754D01*
X0384334Y0352662D01*
X0384416Y0352568D01*
X0384495Y0352471D01*
X0384570Y0352371D01*
X0384643Y0352270D01*
X0384712Y0352166D01*
X0384778Y0352059D01*
X0384840Y0351951D01*
X0384899Y0351841D01*
X0384955Y0351729D01*
X0385007Y0351615D01*
X0385055Y0351500D01*
X0385100Y0351384D01*
X0385140Y0351265D01*
X0385178Y0351146D01*
X0385211Y0351026D01*
X0385240Y0350904D01*
X0385266Y0350782D01*
X0385288Y0350659D01*
X0385305Y0350535D01*
X0385319Y0350411D01*
X0385329Y0350287D01*
X0385335Y0350162D01*
X0385337Y0350037D01*
X0385335Y0349912D01*
X0385329Y0349787D01*
X0385319Y0349663D01*
X0385305Y0349539D01*
X0385288Y0349415D01*
X0385266Y0349292D01*
X0385240Y0349170D01*
X0385211Y0349048D01*
X0385178Y0348928D01*
X0385140Y0348809D01*
X0385100Y0348690D01*
X0385055Y0348574D01*
X0385007Y0348459D01*
X0384955Y0348345D01*
X0384899Y0348233D01*
X0384840Y0348123D01*
X0384778Y0348015D01*
X0384712Y0347908D01*
X0384643Y0347804D01*
X0384570Y0347703D01*
X0384495Y0347603D01*
X0384416Y0347506D01*
X0384334Y0347412D01*
X0384249Y0347320D01*
X0384162Y0347231D01*
X0384071Y0347145D01*
X0383978Y0347062D01*
X0383882Y0346981D01*
X0383784Y0346904D01*
X0383684Y0346830D01*
X0383581Y0346759D01*
X0383476Y0346692D01*
X0383368Y0346627D01*
X0383259Y0346567D01*
X0383148Y0346509D01*
X0383035Y0346456D01*
X0382921Y0346406D01*
X0382805Y0346359D01*
X0382688Y0346317D01*
X0382569Y0346278D01*
X0382449Y0346242D01*
X0382328Y0346211D01*
X0382206Y0346183D01*
X0382084Y0346160D01*
X0381960Y0346140D01*
X0381836Y0346124D01*
X0381712Y0346112D01*
X0381587Y0346104D01*
X0381462Y0346100D01*
X0381338Y0346100D01*
X0381213Y0346104D01*
X0381088Y0346112D01*
X0380964Y0346124D01*
X0380840Y0346140D01*
X0380716Y0346160D01*
X0380594Y0346183D01*
X0380472Y0346211D01*
X0380351Y0346242D01*
X0380231Y0346278D01*
X0380112Y0346317D01*
X0379995Y0346359D01*
X0379879Y0346406D01*
X0379765Y0346456D01*
X0379652Y0346509D01*
X0379541Y0346567D01*
X0379431Y0346627D01*
X0379324Y0346692D01*
X0379219Y0346759D01*
X0379116Y0346830D01*
X0379016Y0346904D01*
X0378918Y0346981D01*
X0378822Y0347062D01*
X0378729Y0347145D01*
X0378638Y0347231D01*
X0378551Y0347320D01*
X0378466Y0347412D01*
X0378384Y0347506D01*
X0378305Y0347603D01*
X0378230Y0347703D01*
X0378157Y0347804D01*
X0378088Y0347908D01*
X0378022Y0348015D01*
X0377960Y0348123D01*
X0377901Y0348233D01*
X0377845Y0348345D01*
X0377793Y0348459D01*
X0377745Y0348574D01*
X0377700Y0348690D01*
X0377660Y0348809D01*
X0377622Y0348928D01*
X0377589Y0349048D01*
X0377560Y0349170D01*
X0377534Y0349292D01*
X0377512Y0349415D01*
X0377495Y0349539D01*
X0377481Y0349663D01*
X0377471Y0349787D01*
X0377465Y0349912D01*
X0377463Y0350037D01*
D11*
X0277852Y0360990D02*
X0277852Y0362442D01*
X0277369Y0362925D01*
X0275434Y0362925D01*
X0274950Y0362442D01*
X0274950Y0360990D01*
X0277852Y0360990D01*
X0277369Y0363937D02*
X0277852Y0364421D01*
X0277852Y0365388D01*
X0277369Y0365872D01*
X0276885Y0365872D01*
X0276401Y0365388D01*
X0275917Y0365872D01*
X0275434Y0365872D01*
X0274950Y0365388D01*
X0274950Y0364421D01*
X0275434Y0363937D01*
X0276401Y0364904D02*
X0276401Y0365388D01*
X0274950Y0369830D02*
X0274950Y0370798D01*
X0274950Y0370314D02*
X0277852Y0370314D01*
X0277852Y0369830D02*
X0277852Y0370798D01*
X0277852Y0371794D02*
X0274950Y0371794D01*
X0275917Y0371794D02*
X0275917Y0373246D01*
X0276401Y0373729D01*
X0277369Y0373729D01*
X0277852Y0373246D01*
X0277852Y0371794D01*
X0275917Y0372762D02*
X0274950Y0373729D01*
X0275434Y0374741D02*
X0274950Y0375225D01*
X0274950Y0376192D01*
X0275434Y0376676D01*
X0277369Y0376676D01*
X0277852Y0376192D01*
X0277852Y0375225D01*
X0277369Y0374741D01*
X0275434Y0374741D01*
X0275917Y0375708D02*
X0274950Y0376676D01*
X0267852Y0376676D02*
X0267852Y0374741D01*
X0267852Y0375708D02*
X0264950Y0375708D01*
X0265434Y0373729D02*
X0264950Y0373246D01*
X0264950Y0372278D01*
X0265434Y0371794D01*
X0266401Y0372278D02*
X0266401Y0373246D01*
X0265917Y0373729D01*
X0265434Y0373729D01*
X0266401Y0372278D02*
X0266885Y0371794D01*
X0267369Y0371794D01*
X0267852Y0372278D01*
X0267852Y0373246D01*
X0267369Y0373729D01*
X0267369Y0370783D02*
X0266401Y0370783D01*
X0265917Y0370299D01*
X0265917Y0368848D01*
X0264950Y0368848D02*
X0267852Y0368848D01*
X0267852Y0370299D01*
X0267369Y0370783D01*
X0265917Y0369815D02*
X0264950Y0370783D01*
X0266401Y0364890D02*
X0266401Y0362955D01*
X0267852Y0364406D01*
X0264950Y0364406D01*
X0265434Y0361943D02*
X0267369Y0361943D01*
X0267852Y0361460D01*
X0267852Y0360008D01*
X0264950Y0360008D01*
X0264950Y0361460D01*
X0265434Y0361943D01*
X0257852Y0361460D02*
X0257852Y0360008D01*
X0254950Y0360008D01*
X0254950Y0361460D01*
X0255434Y0361943D01*
X0257369Y0361943D01*
X0257852Y0361460D01*
X0257369Y0362955D02*
X0256885Y0362955D01*
X0256401Y0363439D01*
X0256401Y0364406D01*
X0255917Y0364890D01*
X0255434Y0364890D01*
X0254950Y0364406D01*
X0254950Y0363439D01*
X0255434Y0362955D01*
X0255917Y0362955D01*
X0256401Y0363439D01*
X0256401Y0364406D02*
X0256885Y0364890D01*
X0257369Y0364890D01*
X0257852Y0364406D01*
X0257852Y0363439D01*
X0257369Y0362955D01*
X0257369Y0371794D02*
X0255434Y0371794D01*
X0254950Y0372278D01*
X0254950Y0373246D01*
X0255434Y0373729D01*
X0255434Y0374741D02*
X0254950Y0375225D01*
X0254950Y0376192D01*
X0255434Y0376676D01*
X0255917Y0376676D01*
X0256401Y0376192D01*
X0256401Y0375225D01*
X0256885Y0374741D01*
X0257369Y0374741D01*
X0257852Y0375225D01*
X0257852Y0376192D01*
X0257369Y0376676D01*
X0257369Y0373729D02*
X0257852Y0373246D01*
X0257852Y0372278D01*
X0257369Y0371794D01*
X0247852Y0372278D02*
X0247369Y0371794D01*
X0245434Y0371794D01*
X0244950Y0372278D01*
X0244950Y0373246D01*
X0245434Y0373729D01*
X0245917Y0374741D02*
X0247852Y0376676D01*
X0247852Y0374741D02*
X0244950Y0374741D01*
X0246401Y0375225D02*
X0244950Y0376676D01*
X0247369Y0373729D02*
X0247852Y0373246D01*
X0247852Y0372278D01*
X0247369Y0370783D02*
X0247852Y0370299D01*
X0247852Y0369332D01*
X0247369Y0368848D01*
X0246885Y0368848D01*
X0246401Y0369332D01*
X0246401Y0370299D01*
X0245917Y0370783D01*
X0245434Y0370783D01*
X0244950Y0370299D01*
X0244950Y0369332D01*
X0245434Y0368848D01*
X0237852Y0368818D02*
X0234950Y0368818D01*
X0235434Y0369830D02*
X0234950Y0370314D01*
X0234950Y0371281D01*
X0235434Y0371765D01*
X0237369Y0371765D01*
X0237852Y0371281D01*
X0237852Y0370314D01*
X0237369Y0369830D01*
X0235434Y0369830D01*
X0236885Y0367851D02*
X0237852Y0366884D01*
X0234950Y0366884D01*
X0236885Y0367851D02*
X0237852Y0368818D01*
X0237369Y0372777D02*
X0236885Y0372777D01*
X0236401Y0373260D01*
X0236401Y0374228D01*
X0235917Y0374712D01*
X0235434Y0374712D01*
X0234950Y0374228D01*
X0234950Y0373260D01*
X0235434Y0372777D01*
X0237369Y0372777D02*
X0237852Y0373260D01*
X0237852Y0374228D01*
X0237369Y0374712D01*
X0237852Y0375723D02*
X0237852Y0376691D01*
X0237852Y0376207D02*
X0234950Y0376207D01*
X0234950Y0375723D02*
X0234950Y0376691D01*
X0227852Y0376192D02*
X0227369Y0376676D01*
X0225434Y0376676D01*
X0224950Y0376192D01*
X0224950Y0375225D01*
X0225434Y0374741D01*
X0227369Y0374741D01*
X0227852Y0375225D01*
X0227852Y0376192D01*
X0227369Y0373729D02*
X0227852Y0373246D01*
X0227852Y0372278D01*
X0227369Y0371794D01*
X0226885Y0371794D01*
X0226401Y0372278D01*
X0226401Y0373246D01*
X0225917Y0373729D01*
X0225434Y0373729D01*
X0224950Y0373246D01*
X0224950Y0372278D01*
X0225434Y0371794D01*
X0224950Y0370798D02*
X0224950Y0369830D01*
X0224950Y0370314D02*
X0227852Y0370314D01*
X0227852Y0369830D02*
X0227852Y0370798D01*
X0227852Y0368818D02*
X0224950Y0368818D01*
X0224950Y0366884D02*
X0227852Y0366884D01*
X0226885Y0367851D01*
X0227852Y0368818D01*
X0217852Y0369332D02*
X0217369Y0368848D01*
X0215434Y0368848D01*
X0214950Y0369332D01*
X0214950Y0370299D01*
X0215434Y0370783D01*
X0216401Y0370783D01*
X0216401Y0369815D01*
X0217369Y0370783D02*
X0217852Y0370299D01*
X0217852Y0369332D01*
X0217852Y0371794D02*
X0214950Y0373729D01*
X0217852Y0373729D01*
X0217852Y0374741D02*
X0217852Y0376192D01*
X0217369Y0376676D01*
X0215434Y0376676D01*
X0214950Y0376192D01*
X0214950Y0374741D01*
X0217852Y0374741D01*
X0217852Y0371794D02*
X0214950Y0371794D01*
X0207852Y0372278D02*
X0207369Y0371794D01*
X0205434Y0371794D01*
X0204950Y0372278D01*
X0204950Y0373246D01*
X0205434Y0373729D01*
X0205434Y0374741D02*
X0204950Y0375225D01*
X0204950Y0376192D01*
X0205434Y0376676D01*
X0207369Y0376676D02*
X0207852Y0376192D01*
X0207852Y0375225D01*
X0207369Y0374741D01*
X0205434Y0374741D01*
X0207369Y0373729D02*
X0207852Y0373246D01*
X0207852Y0372278D01*
X0207852Y0370783D02*
X0205917Y0370783D01*
X0204950Y0369815D01*
X0205917Y0368848D01*
X0207852Y0368848D01*
X0197852Y0371794D02*
X0197852Y0373246D01*
X0197369Y0373729D01*
X0195434Y0373729D01*
X0194950Y0373246D01*
X0194950Y0371794D01*
X0197852Y0371794D01*
X0197852Y0374741D02*
X0197852Y0376676D01*
X0197369Y0376676D01*
X0195434Y0374741D01*
X0194950Y0374741D01*
X0187852Y0373246D02*
X0187852Y0371794D01*
X0184950Y0371794D01*
X0184950Y0373246D01*
X0185434Y0373729D01*
X0187369Y0373729D01*
X0187852Y0373246D01*
X0186401Y0374741D02*
X0186401Y0376192D01*
X0185917Y0376676D01*
X0185434Y0376676D01*
X0184950Y0376192D01*
X0184950Y0375225D01*
X0185434Y0374741D01*
X0186401Y0374741D01*
X0187369Y0375708D01*
X0187852Y0376676D01*
X0177852Y0376192D02*
X0177852Y0375225D01*
X0177369Y0374741D01*
X0177852Y0376192D02*
X0177369Y0376676D01*
X0176885Y0376676D01*
X0174950Y0374741D01*
X0174950Y0376676D01*
X0174950Y0373729D02*
X0174950Y0371794D01*
X0174950Y0372762D02*
X0177852Y0372762D01*
X0176885Y0371794D01*
X0177369Y0370783D02*
X0175434Y0370783D01*
X0174950Y0370299D01*
X0174950Y0368848D01*
X0177852Y0368848D01*
X0177852Y0370299D01*
X0177369Y0370783D01*
X0167852Y0370299D02*
X0167852Y0368848D01*
X0164950Y0368848D01*
X0164950Y0370299D01*
X0165434Y0370783D01*
X0167369Y0370783D01*
X0167852Y0370299D01*
X0166885Y0371794D02*
X0167852Y0372762D01*
X0164950Y0372762D01*
X0164950Y0373729D02*
X0164950Y0371794D01*
X0165434Y0374741D02*
X0164950Y0375225D01*
X0164950Y0376192D01*
X0165434Y0376676D01*
X0167369Y0376676D01*
X0165434Y0374741D01*
X0167369Y0374741D01*
X0167852Y0375225D01*
X0167852Y0376192D01*
X0167369Y0376676D01*
X0157852Y0376958D02*
X0154950Y0376958D01*
X0154950Y0375991D02*
X0154950Y0377926D01*
X0156885Y0375991D02*
X0157852Y0376958D01*
X0157852Y0374012D02*
X0154950Y0374012D01*
X0154950Y0374979D02*
X0154950Y0373044D01*
X0155434Y0372033D02*
X0157369Y0372033D01*
X0157852Y0371549D01*
X0157852Y0370098D01*
X0154950Y0370098D01*
X0154950Y0371549D01*
X0155434Y0372033D01*
X0156885Y0373044D02*
X0157852Y0374012D01*
X0147852Y0374012D02*
X0144950Y0374012D01*
X0144950Y0374979D02*
X0144950Y0373044D01*
X0145434Y0372033D02*
X0144950Y0371549D01*
X0144950Y0370098D01*
X0147852Y0370098D01*
X0147852Y0371549D01*
X0147369Y0372033D01*
X0145434Y0372033D01*
X0146885Y0373044D02*
X0147852Y0374012D01*
X0147369Y0375991D02*
X0147852Y0376475D01*
X0147852Y0377442D01*
X0147369Y0377926D01*
X0146885Y0377926D01*
X0146401Y0377442D01*
X0145917Y0377926D01*
X0145434Y0377926D01*
X0144950Y0377442D01*
X0144950Y0376475D01*
X0145434Y0375991D01*
X0146401Y0376958D02*
X0146401Y0377442D01*
X0137852Y0376958D02*
X0136885Y0377926D01*
X0134950Y0377926D01*
X0136401Y0377926D02*
X0136401Y0375991D01*
X0136885Y0375991D02*
X0137852Y0376958D01*
X0136885Y0375991D02*
X0134950Y0375991D01*
X0135434Y0374979D02*
X0137369Y0374979D01*
X0137852Y0374496D01*
X0137852Y0373044D01*
X0134950Y0373044D01*
X0134950Y0374496D01*
X0135434Y0374979D01*
X0135434Y0372033D02*
X0134950Y0371549D01*
X0134950Y0370582D01*
X0135434Y0370098D01*
X0136401Y0370582D02*
X0136401Y0371549D01*
X0135917Y0372033D01*
X0135434Y0372033D01*
X0136401Y0370582D02*
X0136885Y0370098D01*
X0137369Y0370098D01*
X0137852Y0370582D01*
X0137852Y0371549D01*
X0137369Y0372033D01*
X0127852Y0371549D02*
X0127852Y0370582D01*
X0127369Y0370098D01*
X0126885Y0370098D01*
X0126401Y0370582D01*
X0126401Y0371549D01*
X0125917Y0372033D01*
X0125434Y0372033D01*
X0124950Y0371549D01*
X0124950Y0370582D01*
X0125434Y0370098D01*
X0127369Y0372033D02*
X0127852Y0371549D01*
X0127369Y0373044D02*
X0125434Y0373044D01*
X0124950Y0373528D01*
X0124950Y0374496D01*
X0125434Y0374979D01*
X0124950Y0375991D02*
X0124950Y0377926D01*
X0124950Y0375991D02*
X0127852Y0375991D01*
X0127369Y0374979D02*
X0127852Y0374496D01*
X0127852Y0373528D01*
X0127369Y0373044D01*
X0117852Y0373044D02*
X0114950Y0374979D01*
X0117852Y0374979D01*
X0117852Y0375991D02*
X0117852Y0377442D01*
X0117369Y0377926D01*
X0115434Y0377926D01*
X0114950Y0377442D01*
X0114950Y0375991D01*
X0117852Y0375991D01*
X0117852Y0373044D02*
X0114950Y0373044D01*
X0115434Y0372033D02*
X0116401Y0372033D01*
X0116401Y0371065D01*
X0115434Y0370098D02*
X0114950Y0370582D01*
X0114950Y0371549D01*
X0115434Y0372033D01*
X0117369Y0372033D02*
X0117852Y0371549D01*
X0117852Y0370582D01*
X0117369Y0370098D01*
X0115434Y0370098D01*
X0107852Y0370098D02*
X0105917Y0370098D01*
X0104950Y0371065D01*
X0105917Y0372033D01*
X0107852Y0372033D01*
X0107369Y0373044D02*
X0105434Y0373044D01*
X0104950Y0373528D01*
X0104950Y0374496D01*
X0105434Y0374979D01*
X0105434Y0375991D02*
X0104950Y0376475D01*
X0104950Y0377442D01*
X0105434Y0377926D01*
X0107369Y0377926D02*
X0107852Y0377442D01*
X0107852Y0376475D01*
X0107369Y0375991D01*
X0105434Y0375991D01*
X0107369Y0374979D02*
X0107852Y0374496D01*
X0107852Y0373528D01*
X0107369Y0373044D01*
X0073128Y0379835D02*
X0071193Y0379835D01*
X0071193Y0382737D01*
X0073128Y0382737D01*
X0072161Y0381286D02*
X0071193Y0381286D01*
X0070181Y0381286D02*
X0069214Y0381286D01*
X0070181Y0381286D02*
X0070181Y0382254D01*
X0069698Y0382737D01*
X0068730Y0382737D01*
X0068247Y0382254D01*
X0068247Y0380319D01*
X0068730Y0379835D01*
X0069698Y0379835D01*
X0070181Y0380319D01*
X0067235Y0380319D02*
X0067235Y0381286D01*
X0066751Y0381770D01*
X0065300Y0381770D01*
X0065300Y0382737D02*
X0065300Y0379835D01*
X0066751Y0379835D01*
X0067235Y0380319D01*
X0066267Y0381770D02*
X0067235Y0382737D01*
X0064288Y0382737D02*
X0064288Y0380802D01*
X0063321Y0379835D01*
X0062353Y0380802D01*
X0062353Y0382737D01*
X0061342Y0382737D02*
X0061342Y0379835D01*
X0061342Y0381286D02*
X0059407Y0381286D01*
X0058395Y0380319D02*
X0057912Y0379835D01*
X0056944Y0379835D01*
X0056460Y0380319D01*
X0056460Y0382254D01*
X0056944Y0382737D01*
X0057912Y0382737D01*
X0058395Y0382254D01*
X0059407Y0382737D02*
X0059407Y0379835D01*
X0062353Y0381286D02*
X0064288Y0381286D01*
X0073544Y0390319D02*
X0073544Y0392254D01*
X0072577Y0391286D02*
X0074512Y0391286D01*
X0040753Y0284431D02*
X0040753Y0281962D01*
X0040753Y0280748D02*
X0040753Y0278279D01*
X0037050Y0278279D01*
X0037050Y0280748D01*
X0038902Y0279513D02*
X0038902Y0278279D01*
X0038284Y0277065D02*
X0037667Y0277065D01*
X0037050Y0276447D01*
X0037050Y0275213D01*
X0037667Y0274596D01*
X0037050Y0273381D02*
X0037050Y0270913D01*
X0040753Y0270913D01*
X0040753Y0273381D01*
X0040136Y0274596D02*
X0039519Y0274596D01*
X0038902Y0275213D01*
X0038902Y0276447D01*
X0038284Y0277065D01*
X0040136Y0277065D02*
X0040753Y0276447D01*
X0040753Y0275213D01*
X0040136Y0274596D01*
X0038902Y0272147D02*
X0038902Y0270913D01*
X0038902Y0269698D02*
X0038284Y0269081D01*
X0038284Y0267230D01*
X0038284Y0268464D02*
X0037050Y0269698D01*
X0038902Y0269698D02*
X0040136Y0269698D01*
X0040753Y0269081D01*
X0040753Y0267230D01*
X0037050Y0267230D01*
X0037050Y0283197D02*
X0040753Y0283197D01*
X0124948Y0217313D02*
X0125915Y0216345D01*
X0127850Y0216345D01*
X0127366Y0215334D02*
X0125431Y0213399D01*
X0127366Y0213399D01*
X0127850Y0213883D01*
X0127850Y0214850D01*
X0127366Y0215334D01*
X0125431Y0215334D01*
X0124948Y0214850D01*
X0124948Y0213883D01*
X0125431Y0213399D01*
X0126399Y0216345D02*
X0126399Y0218280D01*
X0125915Y0218280D02*
X0124948Y0217313D01*
X0125915Y0218280D02*
X0127850Y0218280D01*
X0134948Y0217313D02*
X0135915Y0216345D01*
X0137850Y0216345D01*
X0137366Y0215334D02*
X0137850Y0214850D01*
X0137850Y0213883D01*
X0137366Y0213399D01*
X0136399Y0213399D01*
X0135915Y0213883D01*
X0135915Y0214366D01*
X0136399Y0215334D01*
X0134948Y0215334D01*
X0134948Y0213399D01*
X0136399Y0216345D02*
X0136399Y0218280D01*
X0135915Y0218280D02*
X0134948Y0217313D01*
X0135915Y0218280D02*
X0137850Y0218280D01*
X0144948Y0216829D02*
X0146399Y0218280D01*
X0146399Y0216345D01*
X0145431Y0215334D02*
X0144948Y0214850D01*
X0144948Y0213883D01*
X0145431Y0213399D01*
X0145915Y0213399D01*
X0147850Y0215334D01*
X0147850Y0213399D01*
X0147850Y0216829D02*
X0144948Y0216829D01*
X0145431Y0219292D02*
X0144948Y0219776D01*
X0144948Y0221227D01*
X0147850Y0221227D01*
X0147850Y0219776D01*
X0147366Y0219292D01*
X0145431Y0219292D01*
X0154948Y0217313D02*
X0155915Y0216345D01*
X0157850Y0216345D01*
X0157850Y0215334D02*
X0157850Y0213399D01*
X0157850Y0214366D02*
X0154948Y0214366D01*
X0155915Y0215334D01*
X0156399Y0216345D02*
X0156399Y0218280D01*
X0155915Y0218280D02*
X0154948Y0217313D01*
X0155915Y0218280D02*
X0157850Y0218280D01*
X0164948Y0217313D02*
X0165915Y0216345D01*
X0167850Y0216345D01*
X0167850Y0215334D02*
X0165915Y0213399D01*
X0165431Y0213399D01*
X0164948Y0213883D01*
X0164948Y0214850D01*
X0165431Y0215334D01*
X0166399Y0216345D02*
X0166399Y0218280D01*
X0165915Y0218280D02*
X0164948Y0217313D01*
X0165915Y0218280D02*
X0167850Y0218280D01*
X0167850Y0215334D02*
X0167850Y0213399D01*
X0174948Y0213883D02*
X0175431Y0213399D01*
X0175915Y0213399D01*
X0176399Y0213883D01*
X0176883Y0213399D01*
X0177366Y0213399D01*
X0177850Y0213883D01*
X0177850Y0214850D01*
X0177366Y0215334D01*
X0177850Y0216345D02*
X0175915Y0216345D01*
X0174948Y0217313D01*
X0175915Y0218280D01*
X0177850Y0218280D01*
X0176399Y0218280D02*
X0176399Y0216345D01*
X0175431Y0215334D02*
X0174948Y0214850D01*
X0174948Y0213883D01*
X0176399Y0213883D02*
X0176399Y0214366D01*
X0184948Y0213883D02*
X0186399Y0215334D01*
X0186399Y0213399D01*
X0187850Y0213883D02*
X0184948Y0213883D01*
X0185915Y0216345D02*
X0187850Y0216345D01*
X0186399Y0216345D02*
X0186399Y0218280D01*
X0185915Y0218280D02*
X0184948Y0217313D01*
X0185915Y0216345D01*
X0185915Y0218280D02*
X0187850Y0218280D01*
X0194948Y0218280D02*
X0194948Y0216829D01*
X0195431Y0216345D01*
X0197366Y0216345D01*
X0197850Y0216829D01*
X0197850Y0218280D01*
X0194948Y0218280D01*
X0195431Y0215334D02*
X0195915Y0215334D01*
X0196399Y0214850D01*
X0196399Y0213399D01*
X0197366Y0213399D02*
X0195431Y0213399D01*
X0194948Y0213883D01*
X0194948Y0214850D01*
X0195431Y0215334D01*
X0197366Y0215334D02*
X0197850Y0214850D01*
X0197850Y0213883D01*
X0197366Y0213399D01*
X0204948Y0214366D02*
X0207850Y0214366D01*
X0207850Y0213399D02*
X0207850Y0215334D01*
X0207366Y0216345D02*
X0205431Y0216345D01*
X0204948Y0216829D01*
X0204948Y0218280D01*
X0207850Y0218280D01*
X0207850Y0216829D01*
X0207366Y0216345D01*
X0205915Y0215334D02*
X0204948Y0214366D01*
X0214948Y0213883D02*
X0215431Y0213399D01*
X0217366Y0215334D01*
X0217850Y0214850D01*
X0217850Y0213883D01*
X0217366Y0213399D01*
X0215431Y0213399D01*
X0214948Y0213883D02*
X0214948Y0214850D01*
X0215431Y0215334D01*
X0217366Y0215334D01*
X0217366Y0216345D02*
X0215431Y0216345D01*
X0214948Y0216829D01*
X0214948Y0218280D01*
X0217850Y0218280D01*
X0217850Y0216829D01*
X0217366Y0216345D01*
X0224948Y0217313D02*
X0227850Y0217313D01*
X0227850Y0218280D02*
X0227850Y0216345D01*
X0227366Y0215334D02*
X0227850Y0214850D01*
X0227850Y0213883D01*
X0227366Y0213399D01*
X0226883Y0213399D01*
X0226399Y0213883D01*
X0226399Y0214366D01*
X0226399Y0213883D02*
X0225915Y0213399D01*
X0225431Y0213399D01*
X0224948Y0213883D01*
X0224948Y0214850D01*
X0225431Y0215334D01*
X0224948Y0217313D02*
X0225915Y0218280D01*
X0225915Y0219292D02*
X0227850Y0219292D01*
X0226399Y0219292D02*
X0226399Y0221227D01*
X0225915Y0221227D02*
X0224948Y0220259D01*
X0225915Y0219292D01*
X0225915Y0221227D02*
X0227850Y0221227D01*
X0226399Y0222238D02*
X0226883Y0222722D01*
X0226883Y0224173D01*
X0227850Y0224173D02*
X0224948Y0224173D01*
X0224948Y0222722D01*
X0225431Y0222238D01*
X0226399Y0222238D01*
X0234948Y0218280D02*
X0234948Y0216829D01*
X0235431Y0216345D01*
X0237366Y0216345D01*
X0237850Y0216829D01*
X0237850Y0218280D01*
X0234948Y0218280D01*
X0235431Y0215334D02*
X0234948Y0214850D01*
X0234948Y0213883D01*
X0235431Y0213399D01*
X0235915Y0213399D01*
X0237850Y0215334D01*
X0237850Y0213399D01*
X0244948Y0213399D02*
X0244948Y0215334D01*
X0246399Y0215334D01*
X0245915Y0214366D01*
X0245915Y0213883D01*
X0246399Y0213399D01*
X0247366Y0213399D01*
X0247850Y0213883D01*
X0247850Y0214850D01*
X0247366Y0215334D01*
X0247366Y0216345D02*
X0245431Y0216345D01*
X0244948Y0216829D01*
X0244948Y0218280D01*
X0247850Y0218280D01*
X0247850Y0216829D01*
X0247366Y0216345D01*
X0254948Y0216829D02*
X0254948Y0217797D01*
X0255431Y0218280D01*
X0255431Y0219292D02*
X0255915Y0219292D01*
X0256399Y0219776D01*
X0256399Y0221227D01*
X0256399Y0222238D02*
X0256883Y0222722D01*
X0256883Y0224173D01*
X0257850Y0224173D02*
X0254948Y0224173D01*
X0254948Y0222722D01*
X0255431Y0222238D01*
X0256399Y0222238D01*
X0257850Y0221227D02*
X0257850Y0219776D01*
X0257366Y0219292D01*
X0256883Y0219292D01*
X0256399Y0219776D01*
X0255431Y0219292D02*
X0254948Y0219776D01*
X0254948Y0221227D01*
X0257850Y0221227D01*
X0257850Y0218280D02*
X0255915Y0216345D01*
X0255431Y0216345D01*
X0254948Y0216829D01*
X0255431Y0215334D02*
X0254948Y0214850D01*
X0254948Y0213883D01*
X0255431Y0213399D01*
X0255915Y0213399D01*
X0257850Y0215334D01*
X0257850Y0213399D01*
X0257850Y0216345D02*
X0257850Y0218280D01*
X0264948Y0217797D02*
X0265431Y0218280D01*
X0264948Y0217797D02*
X0264948Y0216829D01*
X0265431Y0216345D01*
X0265915Y0216345D01*
X0267850Y0218280D01*
X0267850Y0216345D01*
X0267366Y0215334D02*
X0267850Y0214850D01*
X0267850Y0213883D01*
X0267366Y0213399D01*
X0266883Y0213399D01*
X0266399Y0213883D01*
X0266399Y0214366D01*
X0266399Y0213883D02*
X0265915Y0213399D01*
X0265431Y0213399D01*
X0264948Y0213883D01*
X0264948Y0214850D01*
X0265431Y0215334D01*
X0265431Y0219292D02*
X0265915Y0219292D01*
X0266399Y0219776D01*
X0266399Y0221227D01*
X0266399Y0222238D02*
X0266883Y0222722D01*
X0266883Y0224173D01*
X0267850Y0224173D02*
X0264948Y0224173D01*
X0264948Y0222722D01*
X0265431Y0222238D01*
X0266399Y0222238D01*
X0267850Y0221227D02*
X0264948Y0221227D01*
X0264948Y0219776D01*
X0265431Y0219292D01*
X0266399Y0219776D02*
X0266883Y0219292D01*
X0267366Y0219292D01*
X0267850Y0219776D01*
X0267850Y0221227D01*
X0274948Y0220259D02*
X0275915Y0219292D01*
X0277850Y0219292D01*
X0277850Y0218280D02*
X0275915Y0216345D01*
X0275431Y0216345D01*
X0274948Y0216829D01*
X0274948Y0217797D01*
X0275431Y0218280D01*
X0276399Y0219292D02*
X0276399Y0221227D01*
X0275915Y0221227D02*
X0274948Y0220259D01*
X0275915Y0221227D02*
X0277850Y0221227D01*
X0276399Y0222238D02*
X0276883Y0222722D01*
X0276883Y0224173D01*
X0277850Y0224173D02*
X0274948Y0224173D01*
X0274948Y0222722D01*
X0275431Y0222238D01*
X0276399Y0222238D01*
X0277850Y0218280D02*
X0277850Y0216345D01*
X0277366Y0215334D02*
X0276883Y0215334D01*
X0276399Y0214850D01*
X0276399Y0213883D01*
X0276883Y0213399D01*
X0277366Y0213399D01*
X0277850Y0213883D01*
X0277850Y0214850D01*
X0277366Y0215334D01*
X0276399Y0214850D02*
X0275915Y0215334D01*
X0275431Y0215334D01*
X0274948Y0214850D01*
X0274948Y0213883D01*
X0275431Y0213399D01*
X0275915Y0213399D01*
X0276399Y0213883D01*
D12*
X0277418Y0235337D02*
X0280621Y0235337D01*
X0281689Y0236405D01*
X0280621Y0237473D01*
X0277418Y0237473D01*
X0277418Y0238540D02*
X0277418Y0235337D01*
X0275243Y0236405D02*
X0274176Y0235337D01*
X0270973Y0235337D01*
X0267730Y0236405D02*
X0266662Y0235337D01*
X0267730Y0236405D02*
X0267730Y0240675D01*
X0268798Y0239608D02*
X0266662Y0239608D01*
X0264501Y0238540D02*
X0263433Y0239608D01*
X0261298Y0239608D01*
X0260230Y0238540D01*
X0260230Y0236405D01*
X0261298Y0235337D01*
X0263433Y0235337D01*
X0264501Y0236405D01*
X0264501Y0238540D01*
X0270973Y0239608D02*
X0274176Y0239608D01*
X0275243Y0238540D01*
X0275243Y0236405D01*
X0277418Y0238540D02*
X0278486Y0239608D01*
X0280621Y0239608D01*
X0283864Y0241743D02*
X0288134Y0241743D01*
X0288134Y0235337D01*
X0288134Y0238540D02*
X0285999Y0238540D01*
X0258055Y0237473D02*
X0255920Y0239608D01*
X0254852Y0239608D01*
X0252684Y0239608D02*
X0252684Y0236405D01*
X0251616Y0235337D01*
X0248414Y0235337D01*
X0248414Y0234270D02*
X0249481Y0233202D01*
X0250549Y0233202D01*
X0248414Y0234270D02*
X0248414Y0239608D01*
X0248394Y0245837D02*
X0247326Y0246905D01*
X0246258Y0245837D01*
X0245191Y0246905D01*
X0245191Y0250108D01*
X0243016Y0250108D02*
X0243016Y0246905D01*
X0241948Y0245837D01*
X0240880Y0246905D01*
X0239813Y0245837D01*
X0238745Y0246905D01*
X0238745Y0250108D01*
X0236570Y0250108D02*
X0236570Y0246905D01*
X0235503Y0245837D01*
X0234435Y0246905D01*
X0233367Y0245837D01*
X0232300Y0246905D01*
X0232300Y0250108D01*
X0230125Y0246905D02*
X0229057Y0246905D01*
X0229057Y0245837D01*
X0230125Y0245837D01*
X0230125Y0246905D01*
X0226902Y0247973D02*
X0223699Y0247973D01*
X0222632Y0249040D01*
X0222632Y0251175D01*
X0223699Y0252243D01*
X0226902Y0252243D01*
X0226902Y0245837D01*
X0226902Y0239608D02*
X0226902Y0235337D01*
X0226902Y0237473D02*
X0224767Y0239608D01*
X0223699Y0239608D01*
X0219389Y0245837D02*
X0220456Y0246905D01*
X0220456Y0249040D01*
X0219389Y0250108D01*
X0217254Y0250108D01*
X0216186Y0249040D01*
X0216186Y0247973D01*
X0220456Y0247973D01*
X0219389Y0245837D02*
X0217254Y0245837D01*
X0214011Y0245837D02*
X0214011Y0252243D01*
X0211876Y0250108D01*
X0209741Y0252243D01*
X0209741Y0245837D01*
X0207565Y0245837D02*
X0205430Y0245837D01*
X0206498Y0245837D02*
X0206498Y0250108D01*
X0207565Y0250108D01*
X0206498Y0252243D02*
X0206498Y0253310D01*
X0200046Y0252243D02*
X0195775Y0252243D01*
X0197910Y0252243D02*
X0197910Y0245837D01*
X0202201Y0245837D02*
X0203268Y0245837D01*
X0203268Y0246905D01*
X0202201Y0246905D01*
X0202201Y0245837D01*
X0201127Y0240675D02*
X0201127Y0236405D01*
X0200059Y0235337D01*
X0197897Y0236405D02*
X0197897Y0238540D01*
X0196830Y0239608D01*
X0194694Y0239608D01*
X0193627Y0238540D01*
X0193627Y0237473D01*
X0197897Y0237473D01*
X0197897Y0236405D02*
X0196830Y0235337D01*
X0194694Y0235337D01*
X0191452Y0235337D02*
X0191452Y0239608D01*
X0191452Y0237473D02*
X0189317Y0239608D01*
X0188249Y0239608D01*
X0186080Y0239608D02*
X0185013Y0239608D01*
X0185013Y0235337D01*
X0186080Y0235337D02*
X0183945Y0235337D01*
X0181783Y0236405D02*
X0180716Y0237473D01*
X0177513Y0237473D01*
X0177513Y0238540D02*
X0177513Y0235337D01*
X0180716Y0235337D01*
X0181783Y0236405D01*
X0180716Y0239608D02*
X0178581Y0239608D01*
X0177513Y0238540D01*
X0175338Y0235337D02*
X0173203Y0235337D01*
X0174270Y0235337D02*
X0174270Y0241743D01*
X0175338Y0241743D01*
X0174264Y0245837D02*
X0174264Y0250108D01*
X0171061Y0250108D01*
X0169993Y0249040D01*
X0169993Y0245837D01*
X0167818Y0246905D02*
X0167818Y0249040D01*
X0166751Y0250108D01*
X0164615Y0250108D01*
X0163548Y0249040D01*
X0163548Y0246905D01*
X0164615Y0245837D01*
X0166751Y0245837D01*
X0167818Y0246905D01*
X0169973Y0242810D02*
X0169973Y0241743D01*
X0169973Y0239608D02*
X0169973Y0235337D01*
X0168906Y0235337D02*
X0171041Y0235337D01*
X0171041Y0239608D02*
X0169973Y0239608D01*
X0166744Y0239608D02*
X0162474Y0239608D01*
X0166744Y0235337D01*
X0162474Y0235337D01*
X0160298Y0235337D02*
X0158163Y0235337D01*
X0159231Y0235337D02*
X0159231Y0239608D01*
X0160298Y0239608D01*
X0159231Y0241743D02*
X0159231Y0242810D01*
X0159237Y0245837D02*
X0161373Y0245837D01*
X0160305Y0245837D02*
X0160305Y0252243D01*
X0161373Y0252243D01*
X0157076Y0249040D02*
X0157076Y0246905D01*
X0156008Y0245837D01*
X0153873Y0245837D01*
X0152805Y0246905D01*
X0152805Y0249040D01*
X0153873Y0250108D01*
X0156008Y0250108D01*
X0157076Y0249040D01*
X0150630Y0249040D02*
X0150630Y0246905D01*
X0149563Y0245837D01*
X0146360Y0245837D01*
X0146360Y0244770D02*
X0146360Y0250108D01*
X0149563Y0250108D01*
X0150630Y0249040D01*
X0148495Y0243702D02*
X0147427Y0243702D01*
X0146360Y0244770D01*
X0144185Y0246905D02*
X0144185Y0250108D01*
X0144185Y0246905D02*
X0143117Y0245837D01*
X0139914Y0245837D01*
X0139914Y0244770D02*
X0140982Y0243702D01*
X0142049Y0243702D01*
X0139914Y0244770D02*
X0139914Y0250108D01*
X0136665Y0241743D02*
X0133462Y0241743D01*
X0132395Y0240675D01*
X0132395Y0236405D01*
X0133462Y0235337D01*
X0136665Y0235337D01*
X0136665Y0241743D01*
X0130219Y0239608D02*
X0130219Y0235337D01*
X0130219Y0237473D02*
X0128084Y0239608D01*
X0127017Y0239608D01*
X0124848Y0238540D02*
X0123781Y0239608D01*
X0121645Y0239608D01*
X0120578Y0238540D01*
X0120578Y0237473D01*
X0124848Y0237473D01*
X0124848Y0238540D02*
X0124848Y0236405D01*
X0123781Y0235337D01*
X0121645Y0235337D01*
X0118403Y0236405D02*
X0117335Y0237473D01*
X0114132Y0237473D01*
X0114132Y0238540D02*
X0114132Y0235337D01*
X0117335Y0235337D01*
X0118403Y0236405D01*
X0117335Y0239608D02*
X0115200Y0239608D01*
X0114132Y0238540D01*
X0111957Y0239608D02*
X0110890Y0239608D01*
X0109822Y0238540D01*
X0108754Y0239608D01*
X0107687Y0238540D01*
X0107687Y0235337D01*
X0109822Y0235337D02*
X0109822Y0238540D01*
X0111957Y0239608D02*
X0111957Y0235337D01*
X0105512Y0235337D02*
X0102309Y0235337D01*
X0101241Y0236405D01*
X0102309Y0237473D01*
X0104444Y0237473D01*
X0105512Y0238540D01*
X0104444Y0239608D01*
X0101241Y0239608D01*
X0145286Y0239608D02*
X0145286Y0234270D01*
X0146353Y0233202D01*
X0147421Y0233202D01*
X0148488Y0235337D02*
X0145286Y0235337D01*
X0148488Y0235337D02*
X0149556Y0236405D01*
X0149556Y0238540D01*
X0148488Y0239608D01*
X0145286Y0239608D01*
X0151731Y0238540D02*
X0151731Y0235337D01*
X0151731Y0238540D02*
X0152799Y0239608D01*
X0156001Y0239608D01*
X0156001Y0235337D01*
X0176439Y0245837D02*
X0176439Y0249040D01*
X0177506Y0250108D01*
X0179642Y0250108D01*
X0180709Y0249040D01*
X0182884Y0250108D02*
X0186087Y0250108D01*
X0187155Y0249040D01*
X0187155Y0246905D01*
X0186087Y0245837D01*
X0182884Y0245837D01*
X0180709Y0245837D02*
X0180709Y0252243D01*
X0189330Y0249040D02*
X0189330Y0247973D01*
X0193600Y0247973D01*
X0193600Y0249040D02*
X0192533Y0250108D01*
X0190397Y0250108D01*
X0189330Y0249040D01*
X0190397Y0245837D02*
X0192533Y0245837D01*
X0193600Y0246905D01*
X0193600Y0249040D01*
X0185013Y0242810D02*
X0185013Y0241743D01*
X0200059Y0239608D02*
X0202194Y0239608D01*
X0204369Y0238540D02*
X0204369Y0235337D01*
X0207572Y0235337D01*
X0208640Y0236405D01*
X0207572Y0237473D01*
X0204369Y0237473D01*
X0204369Y0238540D02*
X0205437Y0239608D01*
X0207572Y0239608D01*
X0210815Y0241743D02*
X0210815Y0235337D01*
X0215085Y0235337D02*
X0215085Y0241743D01*
X0212950Y0239608D01*
X0210815Y0241743D01*
X0229077Y0238540D02*
X0230145Y0239608D01*
X0232280Y0239608D01*
X0233347Y0238540D01*
X0233347Y0236405D01*
X0232280Y0235337D01*
X0230145Y0235337D01*
X0229077Y0236405D01*
X0229077Y0238540D01*
X0235523Y0241743D02*
X0239793Y0241743D01*
X0239793Y0235337D01*
X0239793Y0238540D02*
X0237658Y0238540D01*
X0248394Y0245837D02*
X0249461Y0246905D01*
X0249461Y0250108D01*
X0258055Y0239608D02*
X0258055Y0235337D01*
X0064900Y0384787D02*
X0062900Y0386287D01*
X0064900Y0387787D01*
X0064900Y0384787D01*
X0064900Y0384861D02*
X0064801Y0384861D01*
X0064900Y0385460D02*
X0064003Y0385460D01*
X0063205Y0386058D02*
X0064900Y0386058D01*
X0064900Y0386657D02*
X0063393Y0386657D01*
X0064191Y0387255D02*
X0064900Y0387255D01*
D13*
X0340539Y0129507D02*
X0342444Y0129701D01*
X0342649Y0130341D01*
X0342957Y0130939D01*
X0341746Y0132423D01*
X0342764Y0133441D01*
X0344248Y0132231D01*
X0344846Y0132539D01*
X0345487Y0132744D01*
X0345680Y0134649D01*
X0347120Y0134649D01*
X0347313Y0132744D01*
X0347954Y0132539D01*
X0348552Y0132231D01*
X0350036Y0133441D01*
X0351054Y0132423D01*
X0349843Y0130939D01*
X0350151Y0130341D01*
X0350356Y0129701D01*
X0352261Y0129507D01*
X0352261Y0128068D01*
X0350356Y0127874D01*
X0350151Y0127234D01*
X0349843Y0126636D01*
X0351054Y0125152D01*
X0350036Y0124134D01*
X0348552Y0125344D01*
X0347954Y0125036D01*
X0347106Y0127082D01*
X0347485Y0127294D01*
X0347803Y0127589D01*
X0348045Y0127949D01*
X0348195Y0128357D01*
X0348246Y0128787D01*
X0348193Y0129226D01*
X0348037Y0129639D01*
X0347788Y0130004D01*
X0347459Y0130299D01*
X0347069Y0130507D01*
X0346641Y0130617D01*
X0346199Y0130621D01*
X0345769Y0130521D01*
X0345375Y0130321D01*
X0345040Y0130034D01*
X0344782Y0129675D01*
X0344618Y0129265D01*
X0344555Y0128827D01*
X0344599Y0128388D01*
X0344745Y0127971D01*
X0344986Y0127601D01*
X0345309Y0127299D01*
X0345694Y0127082D01*
X0344846Y0125036D01*
X0344248Y0125344D01*
X0342764Y0124134D01*
X0341746Y0125152D01*
X0342957Y0126636D01*
X0342649Y0127234D01*
X0342444Y0127874D01*
X0340539Y0128068D01*
X0340539Y0129507D01*
X0340539Y0129495D02*
X0344710Y0129495D01*
X0344567Y0128906D02*
X0340539Y0128906D01*
X0340539Y0128317D02*
X0344623Y0128317D01*
X0344904Y0127728D02*
X0342490Y0127728D01*
X0342698Y0127139D02*
X0345593Y0127139D01*
X0345473Y0126550D02*
X0342887Y0126550D01*
X0342406Y0125961D02*
X0345229Y0125961D01*
X0344985Y0125372D02*
X0341926Y0125372D01*
X0342115Y0124783D02*
X0343560Y0124783D01*
X0342838Y0124194D02*
X0342704Y0124194D01*
X0347571Y0125961D02*
X0350394Y0125961D01*
X0350874Y0125372D02*
X0347815Y0125372D01*
X0347327Y0126550D02*
X0349913Y0126550D01*
X0350102Y0127139D02*
X0347208Y0127139D01*
X0347897Y0127728D02*
X0350310Y0127728D01*
X0352261Y0128317D02*
X0348180Y0128317D01*
X0348231Y0128906D02*
X0352261Y0128906D01*
X0352261Y0129495D02*
X0348091Y0129495D01*
X0347698Y0130084D02*
X0350234Y0130084D01*
X0349980Y0130673D02*
X0342820Y0130673D01*
X0342693Y0131262D02*
X0350107Y0131262D01*
X0350587Y0131851D02*
X0342213Y0131851D01*
X0341764Y0132441D02*
X0343991Y0132441D01*
X0344656Y0132441D02*
X0348144Y0132441D01*
X0348809Y0132441D02*
X0351036Y0132441D01*
X0350447Y0133030D02*
X0349531Y0133030D01*
X0347284Y0133030D02*
X0345516Y0133030D01*
X0345576Y0133619D02*
X0347224Y0133619D01*
X0347165Y0134208D02*
X0345635Y0134208D01*
X0343269Y0133030D02*
X0342353Y0133030D01*
X0342566Y0130084D02*
X0345099Y0130084D01*
X0349240Y0124783D02*
X0350685Y0124783D01*
X0350096Y0124194D02*
X0349962Y0124194D01*
D14*
X0346912Y0295805D02*
X0346912Y0379270D01*
X0035888Y0379270D01*
X0035888Y0295805D01*
X0346912Y0295805D01*
X0323290Y0315490D02*
X0323290Y0359585D01*
X0059510Y0359585D01*
X0059510Y0315490D01*
X0323290Y0315490D01*
X0013650Y0312787D02*
X0013650Y0309787D01*
X0012650Y0308787D01*
X0013650Y0307787D01*
X0013650Y0304787D01*
X0012650Y0303787D01*
X0013650Y0302787D01*
X0013650Y0299787D01*
X0012650Y0298787D01*
X0013650Y0297787D01*
X0013650Y0294787D01*
X0012650Y0293787D01*
X0013650Y0292787D01*
X0013650Y0289787D01*
X0011650Y0287787D01*
X0008650Y0287787D01*
X0006650Y0289787D01*
X0006650Y0292787D01*
X0007650Y0293787D01*
X0006650Y0294787D01*
X0006650Y0297787D01*
X0007650Y0298787D01*
X0006650Y0299787D01*
X0006650Y0302787D01*
X0007650Y0303787D01*
X0006650Y0304787D01*
X0006650Y0307787D01*
X0007650Y0308787D01*
X0006650Y0309787D01*
X0006650Y0312787D01*
X0008650Y0314787D01*
X0011650Y0314787D01*
X0013650Y0312787D01*
D15*
X0062972Y0386287D03*
D16*
X0027719Y0325037D02*
X0027719Y0320037D01*
X0030731Y0298098D02*
X0032306Y0298098D01*
X0032368Y0298096D01*
X0032429Y0298090D01*
X0032490Y0298081D01*
X0032551Y0298067D01*
X0032610Y0298050D01*
X0032668Y0298029D01*
X0032725Y0298004D01*
X0032780Y0297976D01*
X0032833Y0297945D01*
X0032884Y0297910D01*
X0032933Y0297872D01*
X0032980Y0297831D01*
X0033023Y0297788D01*
X0033064Y0297741D01*
X0033102Y0297692D01*
X0033137Y0297641D01*
X0033168Y0297588D01*
X0033196Y0297533D01*
X0033221Y0297476D01*
X0033242Y0297418D01*
X0033259Y0297359D01*
X0033273Y0297298D01*
X0033282Y0297237D01*
X0033288Y0297176D01*
X0033290Y0297114D01*
X0033290Y0275461D01*
X0033288Y0275399D01*
X0033282Y0275338D01*
X0033273Y0275277D01*
X0033259Y0275216D01*
X0033242Y0275157D01*
X0033221Y0275099D01*
X0033196Y0275042D01*
X0033168Y0274987D01*
X0033137Y0274934D01*
X0033102Y0274883D01*
X0033064Y0274834D01*
X0033023Y0274787D01*
X0032980Y0274744D01*
X0032933Y0274703D01*
X0032884Y0274665D01*
X0032833Y0274630D01*
X0032780Y0274599D01*
X0032725Y0274571D01*
X0032668Y0274546D01*
X0032610Y0274525D01*
X0032551Y0274508D01*
X0032490Y0274494D01*
X0032429Y0274485D01*
X0032368Y0274479D01*
X0032306Y0274477D01*
X0032306Y0274476D02*
X0030731Y0274476D01*
X0029353Y0280382D02*
X0023447Y0280382D01*
X0023447Y0292193D01*
X0029353Y0292193D01*
X0029353Y0280382D01*
X0022069Y0274476D02*
X0020494Y0274476D01*
X0020494Y0274477D02*
X0020432Y0274479D01*
X0020371Y0274485D01*
X0020310Y0274494D01*
X0020249Y0274508D01*
X0020190Y0274525D01*
X0020132Y0274546D01*
X0020075Y0274571D01*
X0020020Y0274599D01*
X0019967Y0274630D01*
X0019916Y0274665D01*
X0019867Y0274703D01*
X0019820Y0274744D01*
X0019777Y0274787D01*
X0019736Y0274834D01*
X0019698Y0274883D01*
X0019663Y0274934D01*
X0019632Y0274987D01*
X0019604Y0275042D01*
X0019579Y0275099D01*
X0019558Y0275157D01*
X0019541Y0275216D01*
X0019527Y0275277D01*
X0019518Y0275338D01*
X0019512Y0275399D01*
X0019510Y0275461D01*
X0019510Y0297114D01*
X0019512Y0297176D01*
X0019518Y0297237D01*
X0019527Y0297298D01*
X0019541Y0297359D01*
X0019558Y0297418D01*
X0019579Y0297476D01*
X0019604Y0297533D01*
X0019632Y0297588D01*
X0019663Y0297641D01*
X0019698Y0297692D01*
X0019736Y0297741D01*
X0019777Y0297788D01*
X0019820Y0297831D01*
X0019867Y0297872D01*
X0019916Y0297910D01*
X0019967Y0297945D01*
X0020020Y0297976D01*
X0020075Y0298004D01*
X0020132Y0298029D01*
X0020190Y0298050D01*
X0020249Y0298067D01*
X0020310Y0298081D01*
X0020371Y0298090D01*
X0020432Y0298096D01*
X0020494Y0298098D01*
X0022069Y0298098D01*
D17*
X0106127Y0335595D02*
X0121741Y0335595D01*
X0113934Y0343402D02*
X0113934Y0327789D01*
X0274474Y0335595D02*
X0290087Y0335595D01*
M02*
