G75*
%MOIN*%
%OFA0B0*%
%FSLAX25Y25*%
%IPPOS*%
%LPD*%
%AMOC8*
5,1,8,0,0,1.08239X$1,22.5*
%
%ADD10C,0.00000*%
%ADD11R,0.05906X0.06102*%
%ADD12R,0.01575X0.05315*%
%ADD13R,0.03150X0.03150*%
%ADD14R,0.05906X0.04882*%
%ADD15R,0.03937X0.04232*%
%ADD16R,0.02165X0.04724*%
%ADD17R,0.04232X0.03937*%
%ADD18R,0.02953X0.00984*%
%ADD19R,0.03937X0.05906*%
%ADD20R,0.04882X0.05906*%
%ADD21R,0.03150X0.07874*%
%ADD22R,0.04134X0.08661*%
%ADD23R,0.03937X0.03150*%
%ADD24R,0.05118X0.02362*%
%ADD25R,0.05512X0.03937*%
%ADD26R,0.08071X0.08071*%
%ADD27R,0.03150X0.03543*%
D10*
X0006400Y0003787D02*
X0386400Y0003787D01*
X0386540Y0003789D01*
X0386680Y0003795D01*
X0386820Y0003805D01*
X0386960Y0003818D01*
X0387099Y0003836D01*
X0387238Y0003858D01*
X0387375Y0003883D01*
X0387513Y0003912D01*
X0387649Y0003945D01*
X0387784Y0003982D01*
X0387918Y0004023D01*
X0388051Y0004068D01*
X0388183Y0004116D01*
X0388313Y0004168D01*
X0388442Y0004223D01*
X0388569Y0004282D01*
X0388695Y0004345D01*
X0388819Y0004411D01*
X0388940Y0004480D01*
X0389060Y0004553D01*
X0389178Y0004630D01*
X0389293Y0004709D01*
X0389407Y0004792D01*
X0389517Y0004878D01*
X0389626Y0004967D01*
X0389732Y0005059D01*
X0389835Y0005154D01*
X0389936Y0005251D01*
X0390033Y0005352D01*
X0390128Y0005455D01*
X0390220Y0005561D01*
X0390309Y0005670D01*
X0390395Y0005780D01*
X0390478Y0005894D01*
X0390557Y0006009D01*
X0390634Y0006127D01*
X0390707Y0006247D01*
X0390776Y0006368D01*
X0390842Y0006492D01*
X0390905Y0006618D01*
X0390964Y0006745D01*
X0391019Y0006874D01*
X0391071Y0007004D01*
X0391119Y0007136D01*
X0391164Y0007269D01*
X0391205Y0007403D01*
X0391242Y0007538D01*
X0391275Y0007674D01*
X0391304Y0007812D01*
X0391329Y0007949D01*
X0391351Y0008088D01*
X0391369Y0008227D01*
X0391382Y0008367D01*
X0391392Y0008507D01*
X0391398Y0008647D01*
X0391400Y0008787D01*
X0391400Y0188787D01*
X0391398Y0188927D01*
X0391392Y0189067D01*
X0391382Y0189207D01*
X0391369Y0189347D01*
X0391351Y0189486D01*
X0391329Y0189625D01*
X0391304Y0189762D01*
X0391275Y0189900D01*
X0391242Y0190036D01*
X0391205Y0190171D01*
X0391164Y0190305D01*
X0391119Y0190438D01*
X0391071Y0190570D01*
X0391019Y0190700D01*
X0390964Y0190829D01*
X0390905Y0190956D01*
X0390842Y0191082D01*
X0390776Y0191206D01*
X0390707Y0191327D01*
X0390634Y0191447D01*
X0390557Y0191565D01*
X0390478Y0191680D01*
X0390395Y0191794D01*
X0390309Y0191904D01*
X0390220Y0192013D01*
X0390128Y0192119D01*
X0390033Y0192222D01*
X0389936Y0192323D01*
X0389835Y0192420D01*
X0389732Y0192515D01*
X0389626Y0192607D01*
X0389517Y0192696D01*
X0389407Y0192782D01*
X0389293Y0192865D01*
X0389178Y0192944D01*
X0389060Y0193021D01*
X0388940Y0193094D01*
X0388819Y0193163D01*
X0388695Y0193229D01*
X0388569Y0193292D01*
X0388442Y0193351D01*
X0388313Y0193406D01*
X0388183Y0193458D01*
X0388051Y0193506D01*
X0387918Y0193551D01*
X0387784Y0193592D01*
X0387649Y0193629D01*
X0387513Y0193662D01*
X0387375Y0193691D01*
X0387238Y0193716D01*
X0387099Y0193738D01*
X0386960Y0193756D01*
X0386820Y0193769D01*
X0386680Y0193779D01*
X0386540Y0193785D01*
X0386400Y0193787D01*
X0291400Y0193787D01*
X0291260Y0193789D01*
X0291120Y0193795D01*
X0290980Y0193805D01*
X0290840Y0193818D01*
X0290701Y0193836D01*
X0290562Y0193858D01*
X0290425Y0193883D01*
X0290287Y0193912D01*
X0290151Y0193945D01*
X0290016Y0193982D01*
X0289882Y0194023D01*
X0289749Y0194068D01*
X0289617Y0194116D01*
X0289487Y0194168D01*
X0289358Y0194223D01*
X0289231Y0194282D01*
X0289105Y0194345D01*
X0288981Y0194411D01*
X0288860Y0194480D01*
X0288740Y0194553D01*
X0288622Y0194630D01*
X0288507Y0194709D01*
X0288393Y0194792D01*
X0288283Y0194878D01*
X0288174Y0194967D01*
X0288068Y0195059D01*
X0287965Y0195154D01*
X0287864Y0195251D01*
X0287767Y0195352D01*
X0287672Y0195455D01*
X0287580Y0195561D01*
X0287491Y0195670D01*
X0287405Y0195780D01*
X0287322Y0195894D01*
X0287243Y0196009D01*
X0287166Y0196127D01*
X0287093Y0196247D01*
X0287024Y0196368D01*
X0286958Y0196492D01*
X0286895Y0196618D01*
X0286836Y0196745D01*
X0286781Y0196874D01*
X0286729Y0197004D01*
X0286681Y0197136D01*
X0286636Y0197269D01*
X0286595Y0197403D01*
X0286558Y0197538D01*
X0286525Y0197674D01*
X0286496Y0197812D01*
X0286471Y0197949D01*
X0286449Y0198088D01*
X0286431Y0198227D01*
X0286418Y0198367D01*
X0286408Y0198507D01*
X0286402Y0198647D01*
X0286400Y0198787D01*
X0286402Y0198927D01*
X0286408Y0199067D01*
X0286418Y0199207D01*
X0286431Y0199347D01*
X0286449Y0199486D01*
X0286471Y0199625D01*
X0286496Y0199762D01*
X0286525Y0199900D01*
X0286558Y0200036D01*
X0286595Y0200171D01*
X0286636Y0200305D01*
X0286681Y0200438D01*
X0286729Y0200570D01*
X0286781Y0200700D01*
X0286836Y0200829D01*
X0286895Y0200956D01*
X0286958Y0201082D01*
X0287024Y0201206D01*
X0287093Y0201327D01*
X0287166Y0201447D01*
X0287243Y0201565D01*
X0287322Y0201680D01*
X0287405Y0201794D01*
X0287491Y0201904D01*
X0287580Y0202013D01*
X0287672Y0202119D01*
X0287767Y0202222D01*
X0287864Y0202323D01*
X0287965Y0202420D01*
X0288068Y0202515D01*
X0288174Y0202607D01*
X0288283Y0202696D01*
X0288393Y0202782D01*
X0288507Y0202865D01*
X0288622Y0202944D01*
X0288740Y0203021D01*
X0288860Y0203094D01*
X0288981Y0203163D01*
X0289105Y0203229D01*
X0289231Y0203292D01*
X0289358Y0203351D01*
X0289487Y0203406D01*
X0289617Y0203458D01*
X0289749Y0203506D01*
X0289882Y0203551D01*
X0290016Y0203592D01*
X0290151Y0203629D01*
X0290287Y0203662D01*
X0290425Y0203691D01*
X0290562Y0203716D01*
X0290701Y0203738D01*
X0290840Y0203756D01*
X0290980Y0203769D01*
X0291120Y0203779D01*
X0291260Y0203785D01*
X0291400Y0203787D01*
X0386400Y0203787D01*
X0386540Y0203789D01*
X0386680Y0203795D01*
X0386820Y0203805D01*
X0386960Y0203818D01*
X0387099Y0203836D01*
X0387238Y0203858D01*
X0387375Y0203883D01*
X0387513Y0203912D01*
X0387649Y0203945D01*
X0387784Y0203982D01*
X0387918Y0204023D01*
X0388051Y0204068D01*
X0388183Y0204116D01*
X0388313Y0204168D01*
X0388442Y0204223D01*
X0388569Y0204282D01*
X0388695Y0204345D01*
X0388819Y0204411D01*
X0388940Y0204480D01*
X0389060Y0204553D01*
X0389178Y0204630D01*
X0389293Y0204709D01*
X0389407Y0204792D01*
X0389517Y0204878D01*
X0389626Y0204967D01*
X0389732Y0205059D01*
X0389835Y0205154D01*
X0389936Y0205251D01*
X0390033Y0205352D01*
X0390128Y0205455D01*
X0390220Y0205561D01*
X0390309Y0205670D01*
X0390395Y0205780D01*
X0390478Y0205894D01*
X0390557Y0206009D01*
X0390634Y0206127D01*
X0390707Y0206247D01*
X0390776Y0206368D01*
X0390842Y0206492D01*
X0390905Y0206618D01*
X0390964Y0206745D01*
X0391019Y0206874D01*
X0391071Y0207004D01*
X0391119Y0207136D01*
X0391164Y0207269D01*
X0391205Y0207403D01*
X0391242Y0207538D01*
X0391275Y0207674D01*
X0391304Y0207812D01*
X0391329Y0207949D01*
X0391351Y0208088D01*
X0391369Y0208227D01*
X0391382Y0208367D01*
X0391392Y0208507D01*
X0391398Y0208647D01*
X0391400Y0208787D01*
X0391400Y0388787D01*
X0391398Y0388927D01*
X0391392Y0389067D01*
X0391382Y0389207D01*
X0391369Y0389347D01*
X0391351Y0389486D01*
X0391329Y0389625D01*
X0391304Y0389762D01*
X0391275Y0389900D01*
X0391242Y0390036D01*
X0391205Y0390171D01*
X0391164Y0390305D01*
X0391119Y0390438D01*
X0391071Y0390570D01*
X0391019Y0390700D01*
X0390964Y0390829D01*
X0390905Y0390956D01*
X0390842Y0391082D01*
X0390776Y0391206D01*
X0390707Y0391327D01*
X0390634Y0391447D01*
X0390557Y0391565D01*
X0390478Y0391680D01*
X0390395Y0391794D01*
X0390309Y0391904D01*
X0390220Y0392013D01*
X0390128Y0392119D01*
X0390033Y0392222D01*
X0389936Y0392323D01*
X0389835Y0392420D01*
X0389732Y0392515D01*
X0389626Y0392607D01*
X0389517Y0392696D01*
X0389407Y0392782D01*
X0389293Y0392865D01*
X0389178Y0392944D01*
X0389060Y0393021D01*
X0388940Y0393094D01*
X0388819Y0393163D01*
X0388695Y0393229D01*
X0388569Y0393292D01*
X0388442Y0393351D01*
X0388313Y0393406D01*
X0388183Y0393458D01*
X0388051Y0393506D01*
X0387918Y0393551D01*
X0387784Y0393592D01*
X0387649Y0393629D01*
X0387513Y0393662D01*
X0387375Y0393691D01*
X0387238Y0393716D01*
X0387099Y0393738D01*
X0386960Y0393756D01*
X0386820Y0393769D01*
X0386680Y0393779D01*
X0386540Y0393785D01*
X0386400Y0393787D01*
X0006400Y0393787D01*
X0006260Y0393785D01*
X0006120Y0393779D01*
X0005980Y0393769D01*
X0005840Y0393756D01*
X0005701Y0393738D01*
X0005562Y0393716D01*
X0005425Y0393691D01*
X0005287Y0393662D01*
X0005151Y0393629D01*
X0005016Y0393592D01*
X0004882Y0393551D01*
X0004749Y0393506D01*
X0004617Y0393458D01*
X0004487Y0393406D01*
X0004358Y0393351D01*
X0004231Y0393292D01*
X0004105Y0393229D01*
X0003981Y0393163D01*
X0003860Y0393094D01*
X0003740Y0393021D01*
X0003622Y0392944D01*
X0003507Y0392865D01*
X0003393Y0392782D01*
X0003283Y0392696D01*
X0003174Y0392607D01*
X0003068Y0392515D01*
X0002965Y0392420D01*
X0002864Y0392323D01*
X0002767Y0392222D01*
X0002672Y0392119D01*
X0002580Y0392013D01*
X0002491Y0391904D01*
X0002405Y0391794D01*
X0002322Y0391680D01*
X0002243Y0391565D01*
X0002166Y0391447D01*
X0002093Y0391327D01*
X0002024Y0391206D01*
X0001958Y0391082D01*
X0001895Y0390956D01*
X0001836Y0390829D01*
X0001781Y0390700D01*
X0001729Y0390570D01*
X0001681Y0390438D01*
X0001636Y0390305D01*
X0001595Y0390171D01*
X0001558Y0390036D01*
X0001525Y0389900D01*
X0001496Y0389762D01*
X0001471Y0389625D01*
X0001449Y0389486D01*
X0001431Y0389347D01*
X0001418Y0389207D01*
X0001408Y0389067D01*
X0001402Y0388927D01*
X0001400Y0388787D01*
X0001400Y0208787D01*
X0001402Y0208647D01*
X0001408Y0208507D01*
X0001418Y0208367D01*
X0001431Y0208227D01*
X0001449Y0208088D01*
X0001471Y0207949D01*
X0001496Y0207812D01*
X0001525Y0207674D01*
X0001558Y0207538D01*
X0001595Y0207403D01*
X0001636Y0207269D01*
X0001681Y0207136D01*
X0001729Y0207004D01*
X0001781Y0206874D01*
X0001836Y0206745D01*
X0001895Y0206618D01*
X0001958Y0206492D01*
X0002024Y0206368D01*
X0002093Y0206247D01*
X0002166Y0206127D01*
X0002243Y0206009D01*
X0002322Y0205894D01*
X0002405Y0205780D01*
X0002491Y0205670D01*
X0002580Y0205561D01*
X0002672Y0205455D01*
X0002767Y0205352D01*
X0002864Y0205251D01*
X0002965Y0205154D01*
X0003068Y0205059D01*
X0003174Y0204967D01*
X0003283Y0204878D01*
X0003393Y0204792D01*
X0003507Y0204709D01*
X0003622Y0204630D01*
X0003740Y0204553D01*
X0003860Y0204480D01*
X0003981Y0204411D01*
X0004105Y0204345D01*
X0004231Y0204282D01*
X0004358Y0204223D01*
X0004487Y0204168D01*
X0004617Y0204116D01*
X0004749Y0204068D01*
X0004882Y0204023D01*
X0005016Y0203982D01*
X0005151Y0203945D01*
X0005287Y0203912D01*
X0005425Y0203883D01*
X0005562Y0203858D01*
X0005701Y0203836D01*
X0005840Y0203818D01*
X0005980Y0203805D01*
X0006120Y0203795D01*
X0006260Y0203789D01*
X0006400Y0203787D01*
X0111400Y0203787D01*
X0111540Y0203785D01*
X0111680Y0203779D01*
X0111820Y0203769D01*
X0111960Y0203756D01*
X0112099Y0203738D01*
X0112238Y0203716D01*
X0112375Y0203691D01*
X0112513Y0203662D01*
X0112649Y0203629D01*
X0112784Y0203592D01*
X0112918Y0203551D01*
X0113051Y0203506D01*
X0113183Y0203458D01*
X0113313Y0203406D01*
X0113442Y0203351D01*
X0113569Y0203292D01*
X0113695Y0203229D01*
X0113819Y0203163D01*
X0113940Y0203094D01*
X0114060Y0203021D01*
X0114178Y0202944D01*
X0114293Y0202865D01*
X0114407Y0202782D01*
X0114517Y0202696D01*
X0114626Y0202607D01*
X0114732Y0202515D01*
X0114835Y0202420D01*
X0114936Y0202323D01*
X0115033Y0202222D01*
X0115128Y0202119D01*
X0115220Y0202013D01*
X0115309Y0201904D01*
X0115395Y0201794D01*
X0115478Y0201680D01*
X0115557Y0201565D01*
X0115634Y0201447D01*
X0115707Y0201327D01*
X0115776Y0201206D01*
X0115842Y0201082D01*
X0115905Y0200956D01*
X0115964Y0200829D01*
X0116019Y0200700D01*
X0116071Y0200570D01*
X0116119Y0200438D01*
X0116164Y0200305D01*
X0116205Y0200171D01*
X0116242Y0200036D01*
X0116275Y0199900D01*
X0116304Y0199762D01*
X0116329Y0199625D01*
X0116351Y0199486D01*
X0116369Y0199347D01*
X0116382Y0199207D01*
X0116392Y0199067D01*
X0116398Y0198927D01*
X0116400Y0198787D01*
X0116398Y0198647D01*
X0116392Y0198507D01*
X0116382Y0198367D01*
X0116369Y0198227D01*
X0116351Y0198088D01*
X0116329Y0197949D01*
X0116304Y0197812D01*
X0116275Y0197674D01*
X0116242Y0197538D01*
X0116205Y0197403D01*
X0116164Y0197269D01*
X0116119Y0197136D01*
X0116071Y0197004D01*
X0116019Y0196874D01*
X0115964Y0196745D01*
X0115905Y0196618D01*
X0115842Y0196492D01*
X0115776Y0196368D01*
X0115707Y0196247D01*
X0115634Y0196127D01*
X0115557Y0196009D01*
X0115478Y0195894D01*
X0115395Y0195780D01*
X0115309Y0195670D01*
X0115220Y0195561D01*
X0115128Y0195455D01*
X0115033Y0195352D01*
X0114936Y0195251D01*
X0114835Y0195154D01*
X0114732Y0195059D01*
X0114626Y0194967D01*
X0114517Y0194878D01*
X0114407Y0194792D01*
X0114293Y0194709D01*
X0114178Y0194630D01*
X0114060Y0194553D01*
X0113940Y0194480D01*
X0113819Y0194411D01*
X0113695Y0194345D01*
X0113569Y0194282D01*
X0113442Y0194223D01*
X0113313Y0194168D01*
X0113183Y0194116D01*
X0113051Y0194068D01*
X0112918Y0194023D01*
X0112784Y0193982D01*
X0112649Y0193945D01*
X0112513Y0193912D01*
X0112375Y0193883D01*
X0112238Y0193858D01*
X0112099Y0193836D01*
X0111960Y0193818D01*
X0111820Y0193805D01*
X0111680Y0193795D01*
X0111540Y0193789D01*
X0111400Y0193787D01*
X0006400Y0193787D01*
X0006260Y0193785D01*
X0006120Y0193779D01*
X0005980Y0193769D01*
X0005840Y0193756D01*
X0005701Y0193738D01*
X0005562Y0193716D01*
X0005425Y0193691D01*
X0005287Y0193662D01*
X0005151Y0193629D01*
X0005016Y0193592D01*
X0004882Y0193551D01*
X0004749Y0193506D01*
X0004617Y0193458D01*
X0004487Y0193406D01*
X0004358Y0193351D01*
X0004231Y0193292D01*
X0004105Y0193229D01*
X0003981Y0193163D01*
X0003860Y0193094D01*
X0003740Y0193021D01*
X0003622Y0192944D01*
X0003507Y0192865D01*
X0003393Y0192782D01*
X0003283Y0192696D01*
X0003174Y0192607D01*
X0003068Y0192515D01*
X0002965Y0192420D01*
X0002864Y0192323D01*
X0002767Y0192222D01*
X0002672Y0192119D01*
X0002580Y0192013D01*
X0002491Y0191904D01*
X0002405Y0191794D01*
X0002322Y0191680D01*
X0002243Y0191565D01*
X0002166Y0191447D01*
X0002093Y0191327D01*
X0002024Y0191206D01*
X0001958Y0191082D01*
X0001895Y0190956D01*
X0001836Y0190829D01*
X0001781Y0190700D01*
X0001729Y0190570D01*
X0001681Y0190438D01*
X0001636Y0190305D01*
X0001595Y0190171D01*
X0001558Y0190036D01*
X0001525Y0189900D01*
X0001496Y0189762D01*
X0001471Y0189625D01*
X0001449Y0189486D01*
X0001431Y0189347D01*
X0001418Y0189207D01*
X0001408Y0189067D01*
X0001402Y0188927D01*
X0001400Y0188787D01*
X0001400Y0008787D01*
X0001402Y0008647D01*
X0001408Y0008507D01*
X0001418Y0008367D01*
X0001431Y0008227D01*
X0001449Y0008088D01*
X0001471Y0007949D01*
X0001496Y0007812D01*
X0001525Y0007674D01*
X0001558Y0007538D01*
X0001595Y0007403D01*
X0001636Y0007269D01*
X0001681Y0007136D01*
X0001729Y0007004D01*
X0001781Y0006874D01*
X0001836Y0006745D01*
X0001895Y0006618D01*
X0001958Y0006492D01*
X0002024Y0006368D01*
X0002093Y0006247D01*
X0002166Y0006127D01*
X0002243Y0006009D01*
X0002322Y0005894D01*
X0002405Y0005780D01*
X0002491Y0005670D01*
X0002580Y0005561D01*
X0002672Y0005455D01*
X0002767Y0005352D01*
X0002864Y0005251D01*
X0002965Y0005154D01*
X0003068Y0005059D01*
X0003174Y0004967D01*
X0003283Y0004878D01*
X0003393Y0004792D01*
X0003507Y0004709D01*
X0003622Y0004630D01*
X0003740Y0004553D01*
X0003860Y0004480D01*
X0003981Y0004411D01*
X0004105Y0004345D01*
X0004231Y0004282D01*
X0004358Y0004223D01*
X0004487Y0004168D01*
X0004617Y0004116D01*
X0004749Y0004068D01*
X0004882Y0004023D01*
X0005016Y0003982D01*
X0005151Y0003945D01*
X0005287Y0003912D01*
X0005425Y0003883D01*
X0005562Y0003858D01*
X0005701Y0003836D01*
X0005840Y0003818D01*
X0005980Y0003805D01*
X0006120Y0003795D01*
X0006260Y0003789D01*
X0006400Y0003787D01*
X0082463Y0227537D02*
X0082465Y0227662D01*
X0082471Y0227787D01*
X0082481Y0227911D01*
X0082495Y0228035D01*
X0082512Y0228159D01*
X0082534Y0228282D01*
X0082560Y0228404D01*
X0082589Y0228526D01*
X0082622Y0228646D01*
X0082660Y0228765D01*
X0082700Y0228884D01*
X0082745Y0229000D01*
X0082793Y0229115D01*
X0082845Y0229229D01*
X0082901Y0229341D01*
X0082960Y0229451D01*
X0083022Y0229559D01*
X0083088Y0229666D01*
X0083157Y0229770D01*
X0083230Y0229871D01*
X0083305Y0229971D01*
X0083384Y0230068D01*
X0083466Y0230162D01*
X0083551Y0230254D01*
X0083638Y0230343D01*
X0083729Y0230429D01*
X0083822Y0230512D01*
X0083918Y0230593D01*
X0084016Y0230670D01*
X0084116Y0230744D01*
X0084219Y0230815D01*
X0084324Y0230882D01*
X0084432Y0230947D01*
X0084541Y0231007D01*
X0084652Y0231065D01*
X0084765Y0231118D01*
X0084879Y0231168D01*
X0084995Y0231215D01*
X0085112Y0231257D01*
X0085231Y0231296D01*
X0085351Y0231332D01*
X0085472Y0231363D01*
X0085594Y0231391D01*
X0085716Y0231414D01*
X0085840Y0231434D01*
X0085964Y0231450D01*
X0086088Y0231462D01*
X0086213Y0231470D01*
X0086338Y0231474D01*
X0086462Y0231474D01*
X0086587Y0231470D01*
X0086712Y0231462D01*
X0086836Y0231450D01*
X0086960Y0231434D01*
X0087084Y0231414D01*
X0087206Y0231391D01*
X0087328Y0231363D01*
X0087449Y0231332D01*
X0087569Y0231296D01*
X0087688Y0231257D01*
X0087805Y0231215D01*
X0087921Y0231168D01*
X0088035Y0231118D01*
X0088148Y0231065D01*
X0088259Y0231007D01*
X0088369Y0230947D01*
X0088476Y0230882D01*
X0088581Y0230815D01*
X0088684Y0230744D01*
X0088784Y0230670D01*
X0088882Y0230593D01*
X0088978Y0230512D01*
X0089071Y0230429D01*
X0089162Y0230343D01*
X0089249Y0230254D01*
X0089334Y0230162D01*
X0089416Y0230068D01*
X0089495Y0229971D01*
X0089570Y0229871D01*
X0089643Y0229770D01*
X0089712Y0229666D01*
X0089778Y0229559D01*
X0089840Y0229451D01*
X0089899Y0229341D01*
X0089955Y0229229D01*
X0090007Y0229115D01*
X0090055Y0229000D01*
X0090100Y0228884D01*
X0090140Y0228765D01*
X0090178Y0228646D01*
X0090211Y0228526D01*
X0090240Y0228404D01*
X0090266Y0228282D01*
X0090288Y0228159D01*
X0090305Y0228035D01*
X0090319Y0227911D01*
X0090329Y0227787D01*
X0090335Y0227662D01*
X0090337Y0227537D01*
X0090335Y0227412D01*
X0090329Y0227287D01*
X0090319Y0227163D01*
X0090305Y0227039D01*
X0090288Y0226915D01*
X0090266Y0226792D01*
X0090240Y0226670D01*
X0090211Y0226548D01*
X0090178Y0226428D01*
X0090140Y0226309D01*
X0090100Y0226190D01*
X0090055Y0226074D01*
X0090007Y0225959D01*
X0089955Y0225845D01*
X0089899Y0225733D01*
X0089840Y0225623D01*
X0089778Y0225515D01*
X0089712Y0225408D01*
X0089643Y0225304D01*
X0089570Y0225203D01*
X0089495Y0225103D01*
X0089416Y0225006D01*
X0089334Y0224912D01*
X0089249Y0224820D01*
X0089162Y0224731D01*
X0089071Y0224645D01*
X0088978Y0224562D01*
X0088882Y0224481D01*
X0088784Y0224404D01*
X0088684Y0224330D01*
X0088581Y0224259D01*
X0088476Y0224192D01*
X0088368Y0224127D01*
X0088259Y0224067D01*
X0088148Y0224009D01*
X0088035Y0223956D01*
X0087921Y0223906D01*
X0087805Y0223859D01*
X0087688Y0223817D01*
X0087569Y0223778D01*
X0087449Y0223742D01*
X0087328Y0223711D01*
X0087206Y0223683D01*
X0087084Y0223660D01*
X0086960Y0223640D01*
X0086836Y0223624D01*
X0086712Y0223612D01*
X0086587Y0223604D01*
X0086462Y0223600D01*
X0086338Y0223600D01*
X0086213Y0223604D01*
X0086088Y0223612D01*
X0085964Y0223624D01*
X0085840Y0223640D01*
X0085716Y0223660D01*
X0085594Y0223683D01*
X0085472Y0223711D01*
X0085351Y0223742D01*
X0085231Y0223778D01*
X0085112Y0223817D01*
X0084995Y0223859D01*
X0084879Y0223906D01*
X0084765Y0223956D01*
X0084652Y0224009D01*
X0084541Y0224067D01*
X0084431Y0224127D01*
X0084324Y0224192D01*
X0084219Y0224259D01*
X0084116Y0224330D01*
X0084016Y0224404D01*
X0083918Y0224481D01*
X0083822Y0224562D01*
X0083729Y0224645D01*
X0083638Y0224731D01*
X0083551Y0224820D01*
X0083466Y0224912D01*
X0083384Y0225006D01*
X0083305Y0225103D01*
X0083230Y0225203D01*
X0083157Y0225304D01*
X0083088Y0225408D01*
X0083022Y0225515D01*
X0082960Y0225623D01*
X0082901Y0225733D01*
X0082845Y0225845D01*
X0082793Y0225959D01*
X0082745Y0226074D01*
X0082700Y0226190D01*
X0082660Y0226309D01*
X0082622Y0226428D01*
X0082589Y0226548D01*
X0082560Y0226670D01*
X0082534Y0226792D01*
X0082512Y0226915D01*
X0082495Y0227039D01*
X0082481Y0227163D01*
X0082471Y0227287D01*
X0082465Y0227412D01*
X0082463Y0227537D01*
X0082463Y0337537D02*
X0082465Y0337662D01*
X0082471Y0337787D01*
X0082481Y0337911D01*
X0082495Y0338035D01*
X0082512Y0338159D01*
X0082534Y0338282D01*
X0082560Y0338404D01*
X0082589Y0338526D01*
X0082622Y0338646D01*
X0082660Y0338765D01*
X0082700Y0338884D01*
X0082745Y0339000D01*
X0082793Y0339115D01*
X0082845Y0339229D01*
X0082901Y0339341D01*
X0082960Y0339451D01*
X0083022Y0339559D01*
X0083088Y0339666D01*
X0083157Y0339770D01*
X0083230Y0339871D01*
X0083305Y0339971D01*
X0083384Y0340068D01*
X0083466Y0340162D01*
X0083551Y0340254D01*
X0083638Y0340343D01*
X0083729Y0340429D01*
X0083822Y0340512D01*
X0083918Y0340593D01*
X0084016Y0340670D01*
X0084116Y0340744D01*
X0084219Y0340815D01*
X0084324Y0340882D01*
X0084432Y0340947D01*
X0084541Y0341007D01*
X0084652Y0341065D01*
X0084765Y0341118D01*
X0084879Y0341168D01*
X0084995Y0341215D01*
X0085112Y0341257D01*
X0085231Y0341296D01*
X0085351Y0341332D01*
X0085472Y0341363D01*
X0085594Y0341391D01*
X0085716Y0341414D01*
X0085840Y0341434D01*
X0085964Y0341450D01*
X0086088Y0341462D01*
X0086213Y0341470D01*
X0086338Y0341474D01*
X0086462Y0341474D01*
X0086587Y0341470D01*
X0086712Y0341462D01*
X0086836Y0341450D01*
X0086960Y0341434D01*
X0087084Y0341414D01*
X0087206Y0341391D01*
X0087328Y0341363D01*
X0087449Y0341332D01*
X0087569Y0341296D01*
X0087688Y0341257D01*
X0087805Y0341215D01*
X0087921Y0341168D01*
X0088035Y0341118D01*
X0088148Y0341065D01*
X0088259Y0341007D01*
X0088369Y0340947D01*
X0088476Y0340882D01*
X0088581Y0340815D01*
X0088684Y0340744D01*
X0088784Y0340670D01*
X0088882Y0340593D01*
X0088978Y0340512D01*
X0089071Y0340429D01*
X0089162Y0340343D01*
X0089249Y0340254D01*
X0089334Y0340162D01*
X0089416Y0340068D01*
X0089495Y0339971D01*
X0089570Y0339871D01*
X0089643Y0339770D01*
X0089712Y0339666D01*
X0089778Y0339559D01*
X0089840Y0339451D01*
X0089899Y0339341D01*
X0089955Y0339229D01*
X0090007Y0339115D01*
X0090055Y0339000D01*
X0090100Y0338884D01*
X0090140Y0338765D01*
X0090178Y0338646D01*
X0090211Y0338526D01*
X0090240Y0338404D01*
X0090266Y0338282D01*
X0090288Y0338159D01*
X0090305Y0338035D01*
X0090319Y0337911D01*
X0090329Y0337787D01*
X0090335Y0337662D01*
X0090337Y0337537D01*
X0090335Y0337412D01*
X0090329Y0337287D01*
X0090319Y0337163D01*
X0090305Y0337039D01*
X0090288Y0336915D01*
X0090266Y0336792D01*
X0090240Y0336670D01*
X0090211Y0336548D01*
X0090178Y0336428D01*
X0090140Y0336309D01*
X0090100Y0336190D01*
X0090055Y0336074D01*
X0090007Y0335959D01*
X0089955Y0335845D01*
X0089899Y0335733D01*
X0089840Y0335623D01*
X0089778Y0335515D01*
X0089712Y0335408D01*
X0089643Y0335304D01*
X0089570Y0335203D01*
X0089495Y0335103D01*
X0089416Y0335006D01*
X0089334Y0334912D01*
X0089249Y0334820D01*
X0089162Y0334731D01*
X0089071Y0334645D01*
X0088978Y0334562D01*
X0088882Y0334481D01*
X0088784Y0334404D01*
X0088684Y0334330D01*
X0088581Y0334259D01*
X0088476Y0334192D01*
X0088368Y0334127D01*
X0088259Y0334067D01*
X0088148Y0334009D01*
X0088035Y0333956D01*
X0087921Y0333906D01*
X0087805Y0333859D01*
X0087688Y0333817D01*
X0087569Y0333778D01*
X0087449Y0333742D01*
X0087328Y0333711D01*
X0087206Y0333683D01*
X0087084Y0333660D01*
X0086960Y0333640D01*
X0086836Y0333624D01*
X0086712Y0333612D01*
X0086587Y0333604D01*
X0086462Y0333600D01*
X0086338Y0333600D01*
X0086213Y0333604D01*
X0086088Y0333612D01*
X0085964Y0333624D01*
X0085840Y0333640D01*
X0085716Y0333660D01*
X0085594Y0333683D01*
X0085472Y0333711D01*
X0085351Y0333742D01*
X0085231Y0333778D01*
X0085112Y0333817D01*
X0084995Y0333859D01*
X0084879Y0333906D01*
X0084765Y0333956D01*
X0084652Y0334009D01*
X0084541Y0334067D01*
X0084431Y0334127D01*
X0084324Y0334192D01*
X0084219Y0334259D01*
X0084116Y0334330D01*
X0084016Y0334404D01*
X0083918Y0334481D01*
X0083822Y0334562D01*
X0083729Y0334645D01*
X0083638Y0334731D01*
X0083551Y0334820D01*
X0083466Y0334912D01*
X0083384Y0335006D01*
X0083305Y0335103D01*
X0083230Y0335203D01*
X0083157Y0335304D01*
X0083088Y0335408D01*
X0083022Y0335515D01*
X0082960Y0335623D01*
X0082901Y0335733D01*
X0082845Y0335845D01*
X0082793Y0335959D01*
X0082745Y0336074D01*
X0082700Y0336190D01*
X0082660Y0336309D01*
X0082622Y0336428D01*
X0082589Y0336548D01*
X0082560Y0336670D01*
X0082534Y0336792D01*
X0082512Y0336915D01*
X0082495Y0337039D01*
X0082481Y0337163D01*
X0082471Y0337287D01*
X0082465Y0337412D01*
X0082463Y0337537D01*
X0261754Y0331406D02*
X0261756Y0331475D01*
X0261762Y0331543D01*
X0261772Y0331611D01*
X0261786Y0331678D01*
X0261804Y0331745D01*
X0261825Y0331810D01*
X0261851Y0331874D01*
X0261880Y0331936D01*
X0261912Y0331996D01*
X0261948Y0332055D01*
X0261988Y0332111D01*
X0262030Y0332165D01*
X0262076Y0332216D01*
X0262125Y0332265D01*
X0262176Y0332311D01*
X0262230Y0332353D01*
X0262286Y0332393D01*
X0262344Y0332429D01*
X0262405Y0332461D01*
X0262467Y0332490D01*
X0262531Y0332516D01*
X0262596Y0332537D01*
X0262663Y0332555D01*
X0262730Y0332569D01*
X0262798Y0332579D01*
X0262866Y0332585D01*
X0262935Y0332587D01*
X0263004Y0332585D01*
X0263072Y0332579D01*
X0263140Y0332569D01*
X0263207Y0332555D01*
X0263274Y0332537D01*
X0263339Y0332516D01*
X0263403Y0332490D01*
X0263465Y0332461D01*
X0263525Y0332429D01*
X0263584Y0332393D01*
X0263640Y0332353D01*
X0263694Y0332311D01*
X0263745Y0332265D01*
X0263794Y0332216D01*
X0263840Y0332165D01*
X0263882Y0332111D01*
X0263922Y0332055D01*
X0263958Y0331996D01*
X0263990Y0331936D01*
X0264019Y0331874D01*
X0264045Y0331810D01*
X0264066Y0331745D01*
X0264084Y0331678D01*
X0264098Y0331611D01*
X0264108Y0331543D01*
X0264114Y0331475D01*
X0264116Y0331406D01*
X0264114Y0331337D01*
X0264108Y0331269D01*
X0264098Y0331201D01*
X0264084Y0331134D01*
X0264066Y0331067D01*
X0264045Y0331002D01*
X0264019Y0330938D01*
X0263990Y0330876D01*
X0263958Y0330815D01*
X0263922Y0330757D01*
X0263882Y0330701D01*
X0263840Y0330647D01*
X0263794Y0330596D01*
X0263745Y0330547D01*
X0263694Y0330501D01*
X0263640Y0330459D01*
X0263584Y0330419D01*
X0263526Y0330383D01*
X0263465Y0330351D01*
X0263403Y0330322D01*
X0263339Y0330296D01*
X0263274Y0330275D01*
X0263207Y0330257D01*
X0263140Y0330243D01*
X0263072Y0330233D01*
X0263004Y0330227D01*
X0262935Y0330225D01*
X0262866Y0330227D01*
X0262798Y0330233D01*
X0262730Y0330243D01*
X0262663Y0330257D01*
X0262596Y0330275D01*
X0262531Y0330296D01*
X0262467Y0330322D01*
X0262405Y0330351D01*
X0262344Y0330383D01*
X0262286Y0330419D01*
X0262230Y0330459D01*
X0262176Y0330501D01*
X0262125Y0330547D01*
X0262076Y0330596D01*
X0262030Y0330647D01*
X0261988Y0330701D01*
X0261948Y0330757D01*
X0261912Y0330815D01*
X0261880Y0330876D01*
X0261851Y0330938D01*
X0261825Y0331002D01*
X0261804Y0331067D01*
X0261786Y0331134D01*
X0261772Y0331201D01*
X0261762Y0331269D01*
X0261756Y0331337D01*
X0261754Y0331406D01*
X0292463Y0337537D02*
X0292465Y0337662D01*
X0292471Y0337787D01*
X0292481Y0337911D01*
X0292495Y0338035D01*
X0292512Y0338159D01*
X0292534Y0338282D01*
X0292560Y0338404D01*
X0292589Y0338526D01*
X0292622Y0338646D01*
X0292660Y0338765D01*
X0292700Y0338884D01*
X0292745Y0339000D01*
X0292793Y0339115D01*
X0292845Y0339229D01*
X0292901Y0339341D01*
X0292960Y0339451D01*
X0293022Y0339559D01*
X0293088Y0339666D01*
X0293157Y0339770D01*
X0293230Y0339871D01*
X0293305Y0339971D01*
X0293384Y0340068D01*
X0293466Y0340162D01*
X0293551Y0340254D01*
X0293638Y0340343D01*
X0293729Y0340429D01*
X0293822Y0340512D01*
X0293918Y0340593D01*
X0294016Y0340670D01*
X0294116Y0340744D01*
X0294219Y0340815D01*
X0294324Y0340882D01*
X0294432Y0340947D01*
X0294541Y0341007D01*
X0294652Y0341065D01*
X0294765Y0341118D01*
X0294879Y0341168D01*
X0294995Y0341215D01*
X0295112Y0341257D01*
X0295231Y0341296D01*
X0295351Y0341332D01*
X0295472Y0341363D01*
X0295594Y0341391D01*
X0295716Y0341414D01*
X0295840Y0341434D01*
X0295964Y0341450D01*
X0296088Y0341462D01*
X0296213Y0341470D01*
X0296338Y0341474D01*
X0296462Y0341474D01*
X0296587Y0341470D01*
X0296712Y0341462D01*
X0296836Y0341450D01*
X0296960Y0341434D01*
X0297084Y0341414D01*
X0297206Y0341391D01*
X0297328Y0341363D01*
X0297449Y0341332D01*
X0297569Y0341296D01*
X0297688Y0341257D01*
X0297805Y0341215D01*
X0297921Y0341168D01*
X0298035Y0341118D01*
X0298148Y0341065D01*
X0298259Y0341007D01*
X0298369Y0340947D01*
X0298476Y0340882D01*
X0298581Y0340815D01*
X0298684Y0340744D01*
X0298784Y0340670D01*
X0298882Y0340593D01*
X0298978Y0340512D01*
X0299071Y0340429D01*
X0299162Y0340343D01*
X0299249Y0340254D01*
X0299334Y0340162D01*
X0299416Y0340068D01*
X0299495Y0339971D01*
X0299570Y0339871D01*
X0299643Y0339770D01*
X0299712Y0339666D01*
X0299778Y0339559D01*
X0299840Y0339451D01*
X0299899Y0339341D01*
X0299955Y0339229D01*
X0300007Y0339115D01*
X0300055Y0339000D01*
X0300100Y0338884D01*
X0300140Y0338765D01*
X0300178Y0338646D01*
X0300211Y0338526D01*
X0300240Y0338404D01*
X0300266Y0338282D01*
X0300288Y0338159D01*
X0300305Y0338035D01*
X0300319Y0337911D01*
X0300329Y0337787D01*
X0300335Y0337662D01*
X0300337Y0337537D01*
X0300335Y0337412D01*
X0300329Y0337287D01*
X0300319Y0337163D01*
X0300305Y0337039D01*
X0300288Y0336915D01*
X0300266Y0336792D01*
X0300240Y0336670D01*
X0300211Y0336548D01*
X0300178Y0336428D01*
X0300140Y0336309D01*
X0300100Y0336190D01*
X0300055Y0336074D01*
X0300007Y0335959D01*
X0299955Y0335845D01*
X0299899Y0335733D01*
X0299840Y0335623D01*
X0299778Y0335515D01*
X0299712Y0335408D01*
X0299643Y0335304D01*
X0299570Y0335203D01*
X0299495Y0335103D01*
X0299416Y0335006D01*
X0299334Y0334912D01*
X0299249Y0334820D01*
X0299162Y0334731D01*
X0299071Y0334645D01*
X0298978Y0334562D01*
X0298882Y0334481D01*
X0298784Y0334404D01*
X0298684Y0334330D01*
X0298581Y0334259D01*
X0298476Y0334192D01*
X0298368Y0334127D01*
X0298259Y0334067D01*
X0298148Y0334009D01*
X0298035Y0333956D01*
X0297921Y0333906D01*
X0297805Y0333859D01*
X0297688Y0333817D01*
X0297569Y0333778D01*
X0297449Y0333742D01*
X0297328Y0333711D01*
X0297206Y0333683D01*
X0297084Y0333660D01*
X0296960Y0333640D01*
X0296836Y0333624D01*
X0296712Y0333612D01*
X0296587Y0333604D01*
X0296462Y0333600D01*
X0296338Y0333600D01*
X0296213Y0333604D01*
X0296088Y0333612D01*
X0295964Y0333624D01*
X0295840Y0333640D01*
X0295716Y0333660D01*
X0295594Y0333683D01*
X0295472Y0333711D01*
X0295351Y0333742D01*
X0295231Y0333778D01*
X0295112Y0333817D01*
X0294995Y0333859D01*
X0294879Y0333906D01*
X0294765Y0333956D01*
X0294652Y0334009D01*
X0294541Y0334067D01*
X0294431Y0334127D01*
X0294324Y0334192D01*
X0294219Y0334259D01*
X0294116Y0334330D01*
X0294016Y0334404D01*
X0293918Y0334481D01*
X0293822Y0334562D01*
X0293729Y0334645D01*
X0293638Y0334731D01*
X0293551Y0334820D01*
X0293466Y0334912D01*
X0293384Y0335006D01*
X0293305Y0335103D01*
X0293230Y0335203D01*
X0293157Y0335304D01*
X0293088Y0335408D01*
X0293022Y0335515D01*
X0292960Y0335623D01*
X0292901Y0335733D01*
X0292845Y0335845D01*
X0292793Y0335959D01*
X0292745Y0336074D01*
X0292700Y0336190D01*
X0292660Y0336309D01*
X0292622Y0336428D01*
X0292589Y0336548D01*
X0292560Y0336670D01*
X0292534Y0336792D01*
X0292512Y0336915D01*
X0292495Y0337039D01*
X0292481Y0337163D01*
X0292471Y0337287D01*
X0292465Y0337412D01*
X0292463Y0337537D01*
X0261754Y0250894D02*
X0261756Y0250963D01*
X0261762Y0251031D01*
X0261772Y0251099D01*
X0261786Y0251166D01*
X0261804Y0251233D01*
X0261825Y0251298D01*
X0261851Y0251362D01*
X0261880Y0251424D01*
X0261912Y0251484D01*
X0261948Y0251543D01*
X0261988Y0251599D01*
X0262030Y0251653D01*
X0262076Y0251704D01*
X0262125Y0251753D01*
X0262176Y0251799D01*
X0262230Y0251841D01*
X0262286Y0251881D01*
X0262344Y0251917D01*
X0262405Y0251949D01*
X0262467Y0251978D01*
X0262531Y0252004D01*
X0262596Y0252025D01*
X0262663Y0252043D01*
X0262730Y0252057D01*
X0262798Y0252067D01*
X0262866Y0252073D01*
X0262935Y0252075D01*
X0263004Y0252073D01*
X0263072Y0252067D01*
X0263140Y0252057D01*
X0263207Y0252043D01*
X0263274Y0252025D01*
X0263339Y0252004D01*
X0263403Y0251978D01*
X0263465Y0251949D01*
X0263525Y0251917D01*
X0263584Y0251881D01*
X0263640Y0251841D01*
X0263694Y0251799D01*
X0263745Y0251753D01*
X0263794Y0251704D01*
X0263840Y0251653D01*
X0263882Y0251599D01*
X0263922Y0251543D01*
X0263958Y0251484D01*
X0263990Y0251424D01*
X0264019Y0251362D01*
X0264045Y0251298D01*
X0264066Y0251233D01*
X0264084Y0251166D01*
X0264098Y0251099D01*
X0264108Y0251031D01*
X0264114Y0250963D01*
X0264116Y0250894D01*
X0264114Y0250825D01*
X0264108Y0250757D01*
X0264098Y0250689D01*
X0264084Y0250622D01*
X0264066Y0250555D01*
X0264045Y0250490D01*
X0264019Y0250426D01*
X0263990Y0250364D01*
X0263958Y0250303D01*
X0263922Y0250245D01*
X0263882Y0250189D01*
X0263840Y0250135D01*
X0263794Y0250084D01*
X0263745Y0250035D01*
X0263694Y0249989D01*
X0263640Y0249947D01*
X0263584Y0249907D01*
X0263526Y0249871D01*
X0263465Y0249839D01*
X0263403Y0249810D01*
X0263339Y0249784D01*
X0263274Y0249763D01*
X0263207Y0249745D01*
X0263140Y0249731D01*
X0263072Y0249721D01*
X0263004Y0249715D01*
X0262935Y0249713D01*
X0262866Y0249715D01*
X0262798Y0249721D01*
X0262730Y0249731D01*
X0262663Y0249745D01*
X0262596Y0249763D01*
X0262531Y0249784D01*
X0262467Y0249810D01*
X0262405Y0249839D01*
X0262344Y0249871D01*
X0262286Y0249907D01*
X0262230Y0249947D01*
X0262176Y0249989D01*
X0262125Y0250035D01*
X0262076Y0250084D01*
X0262030Y0250135D01*
X0261988Y0250189D01*
X0261948Y0250245D01*
X0261912Y0250303D01*
X0261880Y0250364D01*
X0261851Y0250426D01*
X0261825Y0250490D01*
X0261804Y0250555D01*
X0261786Y0250622D01*
X0261772Y0250689D01*
X0261762Y0250757D01*
X0261756Y0250825D01*
X0261754Y0250894D01*
X0377463Y0227537D02*
X0377465Y0227662D01*
X0377471Y0227787D01*
X0377481Y0227911D01*
X0377495Y0228035D01*
X0377512Y0228159D01*
X0377534Y0228282D01*
X0377560Y0228404D01*
X0377589Y0228526D01*
X0377622Y0228646D01*
X0377660Y0228765D01*
X0377700Y0228884D01*
X0377745Y0229000D01*
X0377793Y0229115D01*
X0377845Y0229229D01*
X0377901Y0229341D01*
X0377960Y0229451D01*
X0378022Y0229559D01*
X0378088Y0229666D01*
X0378157Y0229770D01*
X0378230Y0229871D01*
X0378305Y0229971D01*
X0378384Y0230068D01*
X0378466Y0230162D01*
X0378551Y0230254D01*
X0378638Y0230343D01*
X0378729Y0230429D01*
X0378822Y0230512D01*
X0378918Y0230593D01*
X0379016Y0230670D01*
X0379116Y0230744D01*
X0379219Y0230815D01*
X0379324Y0230882D01*
X0379432Y0230947D01*
X0379541Y0231007D01*
X0379652Y0231065D01*
X0379765Y0231118D01*
X0379879Y0231168D01*
X0379995Y0231215D01*
X0380112Y0231257D01*
X0380231Y0231296D01*
X0380351Y0231332D01*
X0380472Y0231363D01*
X0380594Y0231391D01*
X0380716Y0231414D01*
X0380840Y0231434D01*
X0380964Y0231450D01*
X0381088Y0231462D01*
X0381213Y0231470D01*
X0381338Y0231474D01*
X0381462Y0231474D01*
X0381587Y0231470D01*
X0381712Y0231462D01*
X0381836Y0231450D01*
X0381960Y0231434D01*
X0382084Y0231414D01*
X0382206Y0231391D01*
X0382328Y0231363D01*
X0382449Y0231332D01*
X0382569Y0231296D01*
X0382688Y0231257D01*
X0382805Y0231215D01*
X0382921Y0231168D01*
X0383035Y0231118D01*
X0383148Y0231065D01*
X0383259Y0231007D01*
X0383369Y0230947D01*
X0383476Y0230882D01*
X0383581Y0230815D01*
X0383684Y0230744D01*
X0383784Y0230670D01*
X0383882Y0230593D01*
X0383978Y0230512D01*
X0384071Y0230429D01*
X0384162Y0230343D01*
X0384249Y0230254D01*
X0384334Y0230162D01*
X0384416Y0230068D01*
X0384495Y0229971D01*
X0384570Y0229871D01*
X0384643Y0229770D01*
X0384712Y0229666D01*
X0384778Y0229559D01*
X0384840Y0229451D01*
X0384899Y0229341D01*
X0384955Y0229229D01*
X0385007Y0229115D01*
X0385055Y0229000D01*
X0385100Y0228884D01*
X0385140Y0228765D01*
X0385178Y0228646D01*
X0385211Y0228526D01*
X0385240Y0228404D01*
X0385266Y0228282D01*
X0385288Y0228159D01*
X0385305Y0228035D01*
X0385319Y0227911D01*
X0385329Y0227787D01*
X0385335Y0227662D01*
X0385337Y0227537D01*
X0385335Y0227412D01*
X0385329Y0227287D01*
X0385319Y0227163D01*
X0385305Y0227039D01*
X0385288Y0226915D01*
X0385266Y0226792D01*
X0385240Y0226670D01*
X0385211Y0226548D01*
X0385178Y0226428D01*
X0385140Y0226309D01*
X0385100Y0226190D01*
X0385055Y0226074D01*
X0385007Y0225959D01*
X0384955Y0225845D01*
X0384899Y0225733D01*
X0384840Y0225623D01*
X0384778Y0225515D01*
X0384712Y0225408D01*
X0384643Y0225304D01*
X0384570Y0225203D01*
X0384495Y0225103D01*
X0384416Y0225006D01*
X0384334Y0224912D01*
X0384249Y0224820D01*
X0384162Y0224731D01*
X0384071Y0224645D01*
X0383978Y0224562D01*
X0383882Y0224481D01*
X0383784Y0224404D01*
X0383684Y0224330D01*
X0383581Y0224259D01*
X0383476Y0224192D01*
X0383368Y0224127D01*
X0383259Y0224067D01*
X0383148Y0224009D01*
X0383035Y0223956D01*
X0382921Y0223906D01*
X0382805Y0223859D01*
X0382688Y0223817D01*
X0382569Y0223778D01*
X0382449Y0223742D01*
X0382328Y0223711D01*
X0382206Y0223683D01*
X0382084Y0223660D01*
X0381960Y0223640D01*
X0381836Y0223624D01*
X0381712Y0223612D01*
X0381587Y0223604D01*
X0381462Y0223600D01*
X0381338Y0223600D01*
X0381213Y0223604D01*
X0381088Y0223612D01*
X0380964Y0223624D01*
X0380840Y0223640D01*
X0380716Y0223660D01*
X0380594Y0223683D01*
X0380472Y0223711D01*
X0380351Y0223742D01*
X0380231Y0223778D01*
X0380112Y0223817D01*
X0379995Y0223859D01*
X0379879Y0223906D01*
X0379765Y0223956D01*
X0379652Y0224009D01*
X0379541Y0224067D01*
X0379431Y0224127D01*
X0379324Y0224192D01*
X0379219Y0224259D01*
X0379116Y0224330D01*
X0379016Y0224404D01*
X0378918Y0224481D01*
X0378822Y0224562D01*
X0378729Y0224645D01*
X0378638Y0224731D01*
X0378551Y0224820D01*
X0378466Y0224912D01*
X0378384Y0225006D01*
X0378305Y0225103D01*
X0378230Y0225203D01*
X0378157Y0225304D01*
X0378088Y0225408D01*
X0378022Y0225515D01*
X0377960Y0225623D01*
X0377901Y0225733D01*
X0377845Y0225845D01*
X0377793Y0225959D01*
X0377745Y0226074D01*
X0377700Y0226190D01*
X0377660Y0226309D01*
X0377622Y0226428D01*
X0377589Y0226548D01*
X0377560Y0226670D01*
X0377534Y0226792D01*
X0377512Y0226915D01*
X0377495Y0227039D01*
X0377481Y0227163D01*
X0377471Y0227287D01*
X0377465Y0227412D01*
X0377463Y0227537D01*
X0377463Y0350037D02*
X0377465Y0350162D01*
X0377471Y0350287D01*
X0377481Y0350411D01*
X0377495Y0350535D01*
X0377512Y0350659D01*
X0377534Y0350782D01*
X0377560Y0350904D01*
X0377589Y0351026D01*
X0377622Y0351146D01*
X0377660Y0351265D01*
X0377700Y0351384D01*
X0377745Y0351500D01*
X0377793Y0351615D01*
X0377845Y0351729D01*
X0377901Y0351841D01*
X0377960Y0351951D01*
X0378022Y0352059D01*
X0378088Y0352166D01*
X0378157Y0352270D01*
X0378230Y0352371D01*
X0378305Y0352471D01*
X0378384Y0352568D01*
X0378466Y0352662D01*
X0378551Y0352754D01*
X0378638Y0352843D01*
X0378729Y0352929D01*
X0378822Y0353012D01*
X0378918Y0353093D01*
X0379016Y0353170D01*
X0379116Y0353244D01*
X0379219Y0353315D01*
X0379324Y0353382D01*
X0379432Y0353447D01*
X0379541Y0353507D01*
X0379652Y0353565D01*
X0379765Y0353618D01*
X0379879Y0353668D01*
X0379995Y0353715D01*
X0380112Y0353757D01*
X0380231Y0353796D01*
X0380351Y0353832D01*
X0380472Y0353863D01*
X0380594Y0353891D01*
X0380716Y0353914D01*
X0380840Y0353934D01*
X0380964Y0353950D01*
X0381088Y0353962D01*
X0381213Y0353970D01*
X0381338Y0353974D01*
X0381462Y0353974D01*
X0381587Y0353970D01*
X0381712Y0353962D01*
X0381836Y0353950D01*
X0381960Y0353934D01*
X0382084Y0353914D01*
X0382206Y0353891D01*
X0382328Y0353863D01*
X0382449Y0353832D01*
X0382569Y0353796D01*
X0382688Y0353757D01*
X0382805Y0353715D01*
X0382921Y0353668D01*
X0383035Y0353618D01*
X0383148Y0353565D01*
X0383259Y0353507D01*
X0383369Y0353447D01*
X0383476Y0353382D01*
X0383581Y0353315D01*
X0383684Y0353244D01*
X0383784Y0353170D01*
X0383882Y0353093D01*
X0383978Y0353012D01*
X0384071Y0352929D01*
X0384162Y0352843D01*
X0384249Y0352754D01*
X0384334Y0352662D01*
X0384416Y0352568D01*
X0384495Y0352471D01*
X0384570Y0352371D01*
X0384643Y0352270D01*
X0384712Y0352166D01*
X0384778Y0352059D01*
X0384840Y0351951D01*
X0384899Y0351841D01*
X0384955Y0351729D01*
X0385007Y0351615D01*
X0385055Y0351500D01*
X0385100Y0351384D01*
X0385140Y0351265D01*
X0385178Y0351146D01*
X0385211Y0351026D01*
X0385240Y0350904D01*
X0385266Y0350782D01*
X0385288Y0350659D01*
X0385305Y0350535D01*
X0385319Y0350411D01*
X0385329Y0350287D01*
X0385335Y0350162D01*
X0385337Y0350037D01*
X0385335Y0349912D01*
X0385329Y0349787D01*
X0385319Y0349663D01*
X0385305Y0349539D01*
X0385288Y0349415D01*
X0385266Y0349292D01*
X0385240Y0349170D01*
X0385211Y0349048D01*
X0385178Y0348928D01*
X0385140Y0348809D01*
X0385100Y0348690D01*
X0385055Y0348574D01*
X0385007Y0348459D01*
X0384955Y0348345D01*
X0384899Y0348233D01*
X0384840Y0348123D01*
X0384778Y0348015D01*
X0384712Y0347908D01*
X0384643Y0347804D01*
X0384570Y0347703D01*
X0384495Y0347603D01*
X0384416Y0347506D01*
X0384334Y0347412D01*
X0384249Y0347320D01*
X0384162Y0347231D01*
X0384071Y0347145D01*
X0383978Y0347062D01*
X0383882Y0346981D01*
X0383784Y0346904D01*
X0383684Y0346830D01*
X0383581Y0346759D01*
X0383476Y0346692D01*
X0383368Y0346627D01*
X0383259Y0346567D01*
X0383148Y0346509D01*
X0383035Y0346456D01*
X0382921Y0346406D01*
X0382805Y0346359D01*
X0382688Y0346317D01*
X0382569Y0346278D01*
X0382449Y0346242D01*
X0382328Y0346211D01*
X0382206Y0346183D01*
X0382084Y0346160D01*
X0381960Y0346140D01*
X0381836Y0346124D01*
X0381712Y0346112D01*
X0381587Y0346104D01*
X0381462Y0346100D01*
X0381338Y0346100D01*
X0381213Y0346104D01*
X0381088Y0346112D01*
X0380964Y0346124D01*
X0380840Y0346140D01*
X0380716Y0346160D01*
X0380594Y0346183D01*
X0380472Y0346211D01*
X0380351Y0346242D01*
X0380231Y0346278D01*
X0380112Y0346317D01*
X0379995Y0346359D01*
X0379879Y0346406D01*
X0379765Y0346456D01*
X0379652Y0346509D01*
X0379541Y0346567D01*
X0379431Y0346627D01*
X0379324Y0346692D01*
X0379219Y0346759D01*
X0379116Y0346830D01*
X0379016Y0346904D01*
X0378918Y0346981D01*
X0378822Y0347062D01*
X0378729Y0347145D01*
X0378638Y0347231D01*
X0378551Y0347320D01*
X0378466Y0347412D01*
X0378384Y0347506D01*
X0378305Y0347603D01*
X0378230Y0347703D01*
X0378157Y0347804D01*
X0378088Y0347908D01*
X0378022Y0348015D01*
X0377960Y0348123D01*
X0377901Y0348233D01*
X0377845Y0348345D01*
X0377793Y0348459D01*
X0377745Y0348574D01*
X0377700Y0348690D01*
X0377660Y0348809D01*
X0377622Y0348928D01*
X0377589Y0349048D01*
X0377560Y0349170D01*
X0377534Y0349292D01*
X0377512Y0349415D01*
X0377495Y0349539D01*
X0377481Y0349663D01*
X0377471Y0349787D01*
X0377465Y0349912D01*
X0377463Y0350037D01*
D11*
X0067837Y0388079D03*
X0059963Y0388079D03*
D12*
X0058782Y0377449D03*
X0061341Y0377449D03*
X0063900Y0377449D03*
X0066459Y0377449D03*
X0069018Y0377449D03*
D13*
X0062650Y0231787D03*
X0062650Y0225787D03*
X0070150Y0215537D03*
X0070150Y0209537D03*
X0047650Y0210787D03*
X0047650Y0216787D03*
D14*
X0072650Y0318797D03*
X0072650Y0326278D03*
X0036400Y0328778D03*
X0036400Y0321297D03*
X0046400Y0361297D03*
X0046400Y0368778D03*
D15*
X0036400Y0349634D03*
X0036400Y0342941D03*
X0081400Y0323384D03*
X0081400Y0316691D03*
D16*
X0031390Y0359919D03*
X0023910Y0359919D03*
X0023910Y0370156D03*
X0027650Y0370156D03*
X0031390Y0370156D03*
D17*
X0029304Y0387537D03*
X0035996Y0387537D03*
X0038054Y0311287D03*
X0044746Y0311287D03*
X0029746Y0283787D03*
X0023054Y0283787D03*
X0023054Y0268787D03*
X0029746Y0268787D03*
X0089304Y0263787D03*
X0095996Y0263787D03*
X0323054Y0213787D03*
X0329746Y0213787D03*
D18*
G36*
X0088035Y0285660D02*
X0090121Y0283574D01*
X0089425Y0282878D01*
X0087339Y0284964D01*
X0088035Y0285660D01*
G37*
G36*
X0087339Y0287611D02*
X0089425Y0289697D01*
X0090121Y0289001D01*
X0088035Y0286915D01*
X0087339Y0287611D01*
G37*
G36*
X0085947Y0289003D02*
X0088033Y0291089D01*
X0088729Y0290393D01*
X0086643Y0288307D01*
X0085947Y0289003D01*
G37*
G36*
X0084555Y0290395D02*
X0086641Y0292481D01*
X0087337Y0291785D01*
X0085251Y0289699D01*
X0084555Y0290395D01*
G37*
G36*
X0083163Y0291787D02*
X0085249Y0293873D01*
X0085945Y0293177D01*
X0083859Y0291091D01*
X0083163Y0291787D01*
G37*
G36*
X0081771Y0293178D02*
X0083857Y0295264D01*
X0084553Y0294568D01*
X0082467Y0292482D01*
X0081771Y0293178D01*
G37*
G36*
X0080379Y0294570D02*
X0082465Y0296656D01*
X0083161Y0295960D01*
X0081075Y0293874D01*
X0080379Y0294570D01*
G37*
G36*
X0078987Y0295962D02*
X0081073Y0298048D01*
X0081769Y0297352D01*
X0079683Y0295266D01*
X0078987Y0295962D01*
G37*
G36*
X0077595Y0297354D02*
X0079681Y0299440D01*
X0080377Y0298744D01*
X0078291Y0296658D01*
X0077595Y0297354D01*
G37*
G36*
X0076203Y0298746D02*
X0078289Y0300832D01*
X0078985Y0300136D01*
X0076899Y0298050D01*
X0076203Y0298746D01*
G37*
G36*
X0074811Y0300138D02*
X0076897Y0302224D01*
X0077593Y0301528D01*
X0075507Y0299442D01*
X0074811Y0300138D01*
G37*
G36*
X0073419Y0301530D02*
X0075505Y0303616D01*
X0076201Y0302920D01*
X0074115Y0300834D01*
X0073419Y0301530D01*
G37*
G36*
X0072027Y0302922D02*
X0074113Y0305008D01*
X0074809Y0304312D01*
X0072723Y0302226D01*
X0072027Y0302922D01*
G37*
G36*
X0070077Y0302226D02*
X0067991Y0304312D01*
X0068687Y0305008D01*
X0070773Y0302922D01*
X0070077Y0302226D01*
G37*
G36*
X0068685Y0300834D02*
X0066599Y0302920D01*
X0067295Y0303616D01*
X0069381Y0301530D01*
X0068685Y0300834D01*
G37*
G36*
X0067293Y0299442D02*
X0065207Y0301528D01*
X0065903Y0302224D01*
X0067989Y0300138D01*
X0067293Y0299442D01*
G37*
G36*
X0065901Y0298050D02*
X0063815Y0300136D01*
X0064511Y0300832D01*
X0066597Y0298746D01*
X0065901Y0298050D01*
G37*
G36*
X0064509Y0296658D02*
X0062423Y0298744D01*
X0063119Y0299440D01*
X0065205Y0297354D01*
X0064509Y0296658D01*
G37*
G36*
X0063117Y0295266D02*
X0061031Y0297352D01*
X0061727Y0298048D01*
X0063813Y0295962D01*
X0063117Y0295266D01*
G37*
G36*
X0061725Y0293874D02*
X0059639Y0295960D01*
X0060335Y0296656D01*
X0062421Y0294570D01*
X0061725Y0293874D01*
G37*
G36*
X0060333Y0292482D02*
X0058247Y0294568D01*
X0058943Y0295264D01*
X0061029Y0293178D01*
X0060333Y0292482D01*
G37*
G36*
X0058941Y0291091D02*
X0056855Y0293177D01*
X0057551Y0293873D01*
X0059637Y0291787D01*
X0058941Y0291091D01*
G37*
G36*
X0057549Y0289699D02*
X0055463Y0291785D01*
X0056159Y0292481D01*
X0058245Y0290395D01*
X0057549Y0289699D01*
G37*
G36*
X0056157Y0288307D02*
X0054071Y0290393D01*
X0054767Y0291089D01*
X0056853Y0289003D01*
X0056157Y0288307D01*
G37*
G36*
X0054765Y0286915D02*
X0052679Y0289001D01*
X0053375Y0289697D01*
X0055461Y0287611D01*
X0054765Y0286915D01*
G37*
G36*
X0055461Y0284964D02*
X0053375Y0282878D01*
X0052679Y0283574D01*
X0054765Y0285660D01*
X0055461Y0284964D01*
G37*
G36*
X0056853Y0283572D02*
X0054767Y0281486D01*
X0054071Y0282182D01*
X0056157Y0284268D01*
X0056853Y0283572D01*
G37*
G36*
X0058245Y0282180D02*
X0056159Y0280094D01*
X0055463Y0280790D01*
X0057549Y0282876D01*
X0058245Y0282180D01*
G37*
G36*
X0059637Y0280788D02*
X0057551Y0278702D01*
X0056855Y0279398D01*
X0058941Y0281484D01*
X0059637Y0280788D01*
G37*
G36*
X0061029Y0279396D02*
X0058943Y0277310D01*
X0058247Y0278006D01*
X0060333Y0280092D01*
X0061029Y0279396D01*
G37*
G36*
X0062421Y0278004D02*
X0060335Y0275918D01*
X0059639Y0276614D01*
X0061725Y0278700D01*
X0062421Y0278004D01*
G37*
G36*
X0063813Y0276612D02*
X0061727Y0274526D01*
X0061031Y0275222D01*
X0063117Y0277308D01*
X0063813Y0276612D01*
G37*
G36*
X0065205Y0275220D02*
X0063119Y0273134D01*
X0062423Y0273830D01*
X0064509Y0275916D01*
X0065205Y0275220D01*
G37*
G36*
X0066597Y0273829D02*
X0064511Y0271743D01*
X0063815Y0272439D01*
X0065901Y0274525D01*
X0066597Y0273829D01*
G37*
G36*
X0067989Y0272437D02*
X0065903Y0270351D01*
X0065207Y0271047D01*
X0067293Y0273133D01*
X0067989Y0272437D01*
G37*
G36*
X0069381Y0271045D02*
X0067295Y0268959D01*
X0066599Y0269655D01*
X0068685Y0271741D01*
X0069381Y0271045D01*
G37*
G36*
X0070773Y0269653D02*
X0068687Y0267567D01*
X0067991Y0268263D01*
X0070077Y0270349D01*
X0070773Y0269653D01*
G37*
G36*
X0072723Y0270349D02*
X0074809Y0268263D01*
X0074113Y0267567D01*
X0072027Y0269653D01*
X0072723Y0270349D01*
G37*
G36*
X0074115Y0271741D02*
X0076201Y0269655D01*
X0075505Y0268959D01*
X0073419Y0271045D01*
X0074115Y0271741D01*
G37*
G36*
X0075507Y0273133D02*
X0077593Y0271047D01*
X0076897Y0270351D01*
X0074811Y0272437D01*
X0075507Y0273133D01*
G37*
G36*
X0076899Y0274525D02*
X0078985Y0272439D01*
X0078289Y0271743D01*
X0076203Y0273829D01*
X0076899Y0274525D01*
G37*
G36*
X0078291Y0275916D02*
X0080377Y0273830D01*
X0079681Y0273134D01*
X0077595Y0275220D01*
X0078291Y0275916D01*
G37*
G36*
X0079683Y0277308D02*
X0081769Y0275222D01*
X0081073Y0274526D01*
X0078987Y0276612D01*
X0079683Y0277308D01*
G37*
G36*
X0081075Y0278700D02*
X0083161Y0276614D01*
X0082465Y0275918D01*
X0080379Y0278004D01*
X0081075Y0278700D01*
G37*
G36*
X0082467Y0280092D02*
X0084553Y0278006D01*
X0083857Y0277310D01*
X0081771Y0279396D01*
X0082467Y0280092D01*
G37*
G36*
X0083859Y0281484D02*
X0085945Y0279398D01*
X0085249Y0278702D01*
X0083163Y0280788D01*
X0083859Y0281484D01*
G37*
G36*
X0085251Y0282876D02*
X0087337Y0280790D01*
X0086641Y0280094D01*
X0084555Y0282180D01*
X0085251Y0282876D01*
G37*
G36*
X0086643Y0284268D02*
X0088729Y0282182D01*
X0088033Y0281486D01*
X0085947Y0283572D01*
X0086643Y0284268D01*
G37*
D19*
G36*
X0078360Y0282112D02*
X0075577Y0284895D01*
X0079752Y0289070D01*
X0082535Y0286287D01*
X0078360Y0282112D01*
G37*
G36*
X0071400Y0275153D02*
X0068617Y0277936D01*
X0072792Y0282111D01*
X0075575Y0279328D01*
X0071400Y0275153D01*
G37*
G36*
X0067224Y0279329D02*
X0064441Y0282112D01*
X0068616Y0286287D01*
X0071399Y0283504D01*
X0067224Y0279329D01*
G37*
G36*
X0063048Y0283504D02*
X0060265Y0286287D01*
X0064440Y0290462D01*
X0067223Y0287679D01*
X0063048Y0283504D01*
G37*
G36*
X0070008Y0290464D02*
X0067225Y0293247D01*
X0071400Y0297422D01*
X0074183Y0294639D01*
X0070008Y0290464D01*
G37*
G36*
X0074184Y0286288D02*
X0071401Y0289071D01*
X0075576Y0293246D01*
X0078359Y0290463D01*
X0074184Y0286288D01*
G37*
D20*
X0042640Y0302537D03*
X0035160Y0302537D03*
D21*
X0308841Y0318177D03*
X0316715Y0318177D03*
X0324589Y0318177D03*
X0332463Y0318177D03*
X0340337Y0318177D03*
X0348211Y0318177D03*
X0356085Y0318177D03*
X0363959Y0318177D03*
X0363959Y0254398D03*
X0356085Y0254398D03*
X0348211Y0254398D03*
X0340337Y0254398D03*
X0332463Y0254398D03*
X0324589Y0254398D03*
X0316715Y0254398D03*
X0308841Y0254398D03*
D22*
X0330987Y0387537D03*
X0341813Y0387537D03*
D23*
X0336400Y0381533D03*
D24*
X0033998Y0278256D03*
X0033998Y0274713D03*
X0008802Y0274713D03*
X0008802Y0278256D03*
D25*
X0044569Y0235037D03*
X0053231Y0231297D03*
X0053231Y0238778D03*
X0339569Y0213787D03*
X0348231Y0210047D03*
X0348231Y0217528D03*
D26*
X0035180Y0228758D03*
X0035180Y0256317D03*
X0007620Y0256317D03*
X0007620Y0228758D03*
D27*
X0057660Y0318600D03*
X0065140Y0318600D03*
X0061400Y0326868D03*
M02*
